<svg width="155" height="155" viewBox="0 0 155 155" fill="none" xmlns="http://www.w3.org/2000/svg">
<path opacity="0.8" d="M53.8135 122.787C47.1251 135.485 30.9458 140.579 21.1277 130.11C13.364 121.832 7.44102 111.886 3.89842 100.913C-2.32781 81.6267 -0.702268 60.7133 8.42438 42.6841C17.551 24.6548 33.4472 10.9548 52.6838 4.53942C71.9203 -1.87593 92.9553 -0.492393 111.251 8.39158C129.547 17.2755 143.636 32.9479 150.481 52.0276C157.325 71.1073 156.375 92.0651 147.837 110.38C139.298 128.695 123.855 142.898 104.838 149.927C94.0228 153.924 82.5451 155.418 71.2405 154.438C56.9343 153.197 50.9335 137.321 56.7901 124.21L59.4278 118.305C63.8278 108.454 76.3158 104.85 86.4354 101.11C92.6089 98.8283 97.6224 94.2173 100.394 88.2717C103.166 82.3261 103.475 75.5224 101.253 69.3285C99.0308 63.1345 94.4567 58.0467 88.5173 55.1627C82.5779 52.2786 75.7492 51.8295 69.5044 53.9121C63.2595 55.9948 58.099 60.4423 55.1362 66.2952C52.1733 72.1482 51.6456 78.9374 53.6669 85.1983C56.9798 95.4602 61.8647 107.501 56.8395 117.041L53.8135 122.787Z" fill="url(#paint0_linear_8_20)"/>
<defs>
<linearGradient id="paint0_linear_8_20" x1="109.139" y1="7.40495" x2="46.0401" y2="147.884" gradientUnits="userSpaceOnUse">
<stop stop-color="#FAEA23" stop-opacity="0.34"/>
<stop offset="1" stop-color="#FF7300"/>
</linearGradient>
</defs>
</svg>
