<svg width="263" height="234" viewBox="0 0 263 234" fill="none" xmlns="http://www.w3.org/2000/svg">
<path d="M259.427 196.328C261.275 198.055 262.169 200.283 261.913 202.524C261.658 204.764 260.274 206.835 258.064 208.281C234.405 223.571 213.281 229 194.01 229C168.689 229 146.556 219.629 125.963 210.937C91.4153 196.317 61.5826 183.694 18.2031 211.724C17.1032 212.447 15.8306 212.993 14.4585 213.331C13.0864 213.669 11.6422 213.792 10.2089 213.693C8.77562 213.594 7.38174 213.274 6.1076 212.753C4.83346 212.231 3.70427 211.519 2.78514 210.656C1.86601 209.793 1.17511 208.796 0.752284 207.724C0.329458 206.651 0.183066 205.525 0.321549 204.408C0.460033 203.291 0.880653 202.207 1.55916 201.218C2.23766 200.229 3.16062 199.354 4.27484 198.644C59.0204 163.284 100.11 180.666 136.376 196.009C170.924 210.619 200.757 223.241 244.136 195.223C246.356 193.797 249.209 193.113 252.073 193.32C254.937 193.527 257.581 194.608 259.427 196.328ZM244.068 135.765C200.688 163.794 170.856 151.171 136.307 136.551C100.042 121.219 58.9523 103.836 4.2067 139.196C2.00758 140.643 0.630704 142.708 0.376116 144.942C0.121528 147.176 1.00986 149.398 2.84754 151.124C4.68522 152.849 7.32327 153.939 10.1868 154.155C13.0504 154.37 15.9073 153.695 18.135 152.276C61.5144 124.247 91.3471 136.87 125.895 151.49C146.488 160.192 168.621 169.552 193.942 169.552C213.213 169.552 234.337 164.123 257.996 148.833C259.11 148.124 260.033 147.249 260.712 146.26C261.39 145.27 261.811 144.186 261.949 143.069C262.088 141.953 261.941 140.826 261.519 139.754C261.096 138.681 260.405 137.685 259.486 136.822C258.567 135.959 257.437 135.246 256.163 134.725C254.889 134.203 253.495 133.884 252.062 133.785C250.629 133.685 249.184 133.808 247.812 134.146C246.44 134.484 245.168 135.031 244.068 135.754V135.765ZM18.135 92.7859C61.5144 64.7674 91.3471 77.3901 125.895 91.9996C146.488 100.712 168.621 110.062 193.942 110.062C213.213 110.062 234.337 104.622 257.996 89.3433C259.11 88.6335 260.033 87.7587 260.712 86.7695C261.39 85.7802 261.811 84.696 261.949 83.5794C262.088 82.4628 261.941 81.3359 261.519 80.2636C261.096 79.1913 260.405 78.1949 259.486 77.3317C258.567 76.4686 257.437 75.7559 256.163 75.2346C254.889 74.7133 253.495 74.3939 252.062 74.2946C250.629 74.1953 249.184 74.3182 247.812 74.6562C246.44 74.9942 245.168 75.5405 244.068 76.2638C200.688 104.293 170.856 91.6703 136.307 77.0501C100.042 61.7393 58.9523 44.3566 4.2067 79.717C3.05362 80.4166 2.09267 81.2898 1.38095 82.2846C0.669227 83.2794 0.221246 84.3757 0.0636264 85.5081C-0.0939934 86.6406 0.041962 87.7862 0.463415 88.8769C0.884869 89.9676 1.58322 90.9812 2.51698 91.8573C3.45074 92.7335 4.60086 93.4543 5.899 93.9771C7.19715 94.4999 8.61684 94.814 10.0737 94.9006C11.5306 94.9872 12.9949 94.8446 14.3798 94.4814C15.7646 94.1181 17.0416 93.5415 18.135 92.7859Z" fill="url(#paint0_linear_18_102)"/>
<rect y="3.05176e-05" width="263" height="234" rx="22" fill="url(#paint1_linear_18_102)" fill-opacity="0.52" style="mix-blend-mode:exclusion"/>
<mask id="path-3-outside-1_18_102" maskUnits="userSpaceOnUse" x="86.8465" y="95.1454" width="123.689" height="66.8003" fill="black">
<rect fill="white" x="86.8465" y="95.1454" width="123.689" height="66.8003"/>
<path d="M109.932 126.854L108.984 129.75L88.3804 123.004L96.9434 96.8508L116.786 103.347L115.838 106.243L99.5406 100.907L96.7937 109.297L111.977 114.268L111.041 117.127L95.8578 112.156L92.8738 121.269L109.932 126.854ZM136.07 116.382L121.996 134.01L118.042 132.716L117.323 110.244L120.887 111.411L121.026 125.924C121.032 126.2 121.018 126.744 120.985 127.555C120.957 128.354 120.917 129.417 120.866 130.743C121.185 130.313 121.504 129.862 121.823 129.391C122.158 128.912 122.481 128.449 122.791 128.003C123.114 127.56 123.406 127.17 123.668 126.831L132.525 115.221L136.07 116.382ZM137.804 128.849C137.051 131.151 136.946 133.082 137.489 134.644C138.033 136.206 139.221 137.287 141.052 137.886C142.5 138.36 143.752 138.448 144.809 138.15C145.878 137.856 146.713 137.315 147.314 136.525L149.973 138.32C147.736 141.095 144.488 141.786 140.232 140.392C137.262 139.42 135.287 137.793 134.307 135.513C133.34 133.237 133.427 130.355 134.57 126.865C135.656 123.549 137.262 121.259 139.388 119.996C141.526 118.737 144.037 118.579 146.92 119.523C149.878 120.492 151.801 122.108 152.69 124.372C153.579 126.636 153.443 129.544 152.28 133.095L152.134 133.541L137.804 128.849ZM149.52 129.849C150.027 127.672 149.994 125.955 149.419 124.698C148.848 123.429 147.727 122.521 146.056 121.974C144.435 121.443 142.97 121.566 141.661 122.343C140.368 123.112 139.374 124.431 138.68 126.3L149.52 129.849ZM160.572 133.755L156.762 145.393L153.421 144.299L158.592 128.503C158.977 127.328 159.273 126.383 159.479 125.67C159.702 124.948 159.837 124.451 159.885 124.179L163.04 125.212C162.988 125.455 162.909 125.758 162.804 126.121C162.712 126.488 162.6 126.89 162.471 127.328C162.342 127.765 162.206 128.22 162.065 128.695L162.12 128.713C163.341 127.578 164.546 126.89 165.735 126.649C166.94 126.4 168.291 126.52 169.788 127.011C171.991 127.732 173.415 128.821 174.061 130.28C174.72 131.742 174.646 133.705 173.84 136.167L169.458 149.55L166.098 148.45L170.267 135.717C170.895 133.799 171.023 132.361 170.652 131.404C170.28 130.446 169.333 129.718 167.811 129.22C166.203 128.693 164.754 128.829 163.465 129.626C162.177 130.424 161.212 131.8 160.572 133.755ZM182.277 153.583C181.091 153.523 179.916 153.303 178.753 152.922C177.416 152.485 176.538 151.779 176.117 150.805C175.699 149.819 175.738 148.572 176.232 147.062L180.62 133.66L178.3 132.901L179.096 130.469L181.546 131.271L184.001 127.101L186.228 127.831L184.757 132.323L188.47 133.538L187.674 135.97L183.961 134.754L179.811 147.432C179.495 148.397 179.426 149.128 179.606 149.626C179.802 150.115 180.29 150.487 181.07 150.742C181.49 150.88 182.162 151.004 183.085 151.114L182.277 153.583ZM201.976 154.052C201.356 155.945 200.16 157.171 198.389 157.728C196.629 158.289 194.463 158.148 191.889 157.305C189.389 156.487 187.592 155.446 186.499 154.184C185.421 152.913 184.964 151.339 185.127 149.46L188.267 149.851C188.199 151.021 188.527 152.005 189.252 152.804C189.981 153.591 191.137 154.244 192.721 154.762C194.417 155.317 195.739 155.463 196.689 155.198C197.651 154.938 198.302 154.288 198.643 153.248C198.902 152.456 198.84 151.724 198.458 151.051C198.075 150.377 197.331 149.681 196.223 148.963C194.913 148.109 193.872 147.419 193.099 146.892C192.339 146.369 191.758 145.945 191.357 145.622C190.96 145.287 190.652 144.994 190.432 144.744C189.769 144.006 189.32 143.222 189.085 142.392C188.85 141.561 188.895 140.651 189.219 139.661C189.819 137.83 190.924 136.65 192.535 136.123C194.163 135.587 196.227 135.728 198.726 136.547C200.941 137.272 202.571 138.237 203.615 139.442C204.671 140.651 205.091 142.173 204.875 144.006L201.746 143.393C201.852 142.441 201.574 141.596 200.911 140.859C200.265 140.113 199.261 139.517 197.9 139.071C196.39 138.577 195.202 138.441 194.334 138.664C193.466 138.887 192.881 139.462 192.577 140.391C192.354 141.071 192.374 141.701 192.636 142.28C192.903 142.847 193.565 143.461 194.622 144.123C196.048 145 197.387 145.891 198.639 146.794C199.896 147.685 200.756 148.446 201.221 149.078C201.76 149.816 202.095 150.591 202.227 151.401C202.376 152.203 202.292 153.087 201.976 154.052Z"/>
</mask>
<g filter="url(#filter0_i_18_102)">
<path d="M109.932 126.854L108.984 129.75L88.3804 123.004L96.9434 96.8508L116.786 103.347L115.838 106.243L99.5406 100.907L96.7937 109.297L111.977 114.268L111.041 117.127L95.8578 112.156L92.8738 121.269L109.932 126.854ZM136.07 116.382L121.996 134.01L118.042 132.716L117.323 110.244L120.887 111.411L121.026 125.924C121.032 126.2 121.018 126.744 120.985 127.555C120.957 128.354 120.917 129.417 120.866 130.743C121.185 130.313 121.504 129.862 121.823 129.391C122.158 128.912 122.481 128.449 122.791 128.003C123.114 127.56 123.406 127.17 123.668 126.831L132.525 115.221L136.07 116.382ZM137.804 128.849C137.051 131.151 136.946 133.082 137.489 134.644C138.033 136.206 139.221 137.287 141.052 137.886C142.5 138.36 143.752 138.448 144.809 138.15C145.878 137.856 146.713 137.315 147.314 136.525L149.973 138.32C147.736 141.095 144.488 141.786 140.232 140.392C137.262 139.42 135.287 137.793 134.307 135.513C133.34 133.237 133.427 130.355 134.57 126.865C135.656 123.549 137.262 121.259 139.388 119.996C141.526 118.737 144.037 118.579 146.92 119.523C149.878 120.492 151.801 122.108 152.69 124.372C153.579 126.636 153.443 129.544 152.28 133.095L152.134 133.541L137.804 128.849ZM149.52 129.849C150.027 127.672 149.994 125.955 149.419 124.698C148.848 123.429 147.727 122.521 146.056 121.974C144.435 121.443 142.97 121.566 141.661 122.343C140.368 123.112 139.374 124.431 138.68 126.3L149.52 129.849ZM160.572 133.755L156.762 145.393L153.421 144.299L158.592 128.503C158.977 127.328 159.273 126.383 159.479 125.67C159.702 124.948 159.837 124.451 159.885 124.179L163.04 125.212C162.988 125.455 162.909 125.758 162.804 126.121C162.712 126.488 162.6 126.89 162.471 127.328C162.342 127.765 162.206 128.22 162.065 128.695L162.12 128.713C163.341 127.578 164.546 126.89 165.735 126.649C166.94 126.4 168.291 126.52 169.788 127.011C171.991 127.732 173.415 128.821 174.061 130.28C174.72 131.742 174.646 133.705 173.84 136.167L169.458 149.55L166.098 148.45L170.267 135.717C170.895 133.799 171.023 132.361 170.652 131.404C170.28 130.446 169.333 129.718 167.811 129.22C166.203 128.693 164.754 128.829 163.465 129.626C162.177 130.424 161.212 131.8 160.572 133.755ZM182.277 153.583C181.091 153.523 179.916 153.303 178.753 152.922C177.416 152.485 176.538 151.779 176.117 150.805C175.699 149.819 175.738 148.572 176.232 147.062L180.62 133.66L178.3 132.901L179.096 130.469L181.546 131.271L184.001 127.101L186.228 127.831L184.757 132.323L188.47 133.538L187.674 135.97L183.961 134.754L179.811 147.432C179.495 148.397 179.426 149.128 179.606 149.626C179.802 150.115 180.29 150.487 181.07 150.742C181.49 150.88 182.162 151.004 183.085 151.114L182.277 153.583ZM201.976 154.052C201.356 155.945 200.16 157.171 198.389 157.728C196.629 158.289 194.463 158.148 191.889 157.305C189.389 156.487 187.592 155.446 186.499 154.184C185.421 152.913 184.964 151.339 185.127 149.46L188.267 149.851C188.199 151.021 188.527 152.005 189.252 152.804C189.981 153.591 191.137 154.244 192.721 154.762C194.417 155.317 195.739 155.463 196.689 155.198C197.651 154.938 198.302 154.288 198.643 153.248C198.902 152.456 198.84 151.724 198.458 151.051C198.075 150.377 197.331 149.681 196.223 148.963C194.913 148.109 193.872 147.419 193.099 146.892C192.339 146.369 191.758 145.945 191.357 145.622C190.96 145.287 190.652 144.994 190.432 144.744C189.769 144.006 189.32 143.222 189.085 142.392C188.85 141.561 188.895 140.651 189.219 139.661C189.819 137.83 190.924 136.65 192.535 136.123C194.163 135.587 196.227 135.728 198.726 136.547C200.941 137.272 202.571 138.237 203.615 139.442C204.671 140.651 205.091 142.173 204.875 144.006L201.746 143.393C201.852 142.441 201.574 141.596 200.911 140.859C200.265 140.113 199.261 139.517 197.9 139.071C196.39 138.577 195.202 138.441 194.334 138.664C193.466 138.887 192.881 139.462 192.577 140.391C192.354 141.071 192.374 141.701 192.636 142.28C192.903 142.847 193.565 143.461 194.622 144.123C196.048 145 197.387 145.891 198.639 146.794C199.896 147.685 200.756 148.446 201.221 149.078C201.76 149.816 202.095 150.591 202.227 151.401C202.376 152.203 202.292 153.087 201.976 154.052Z" fill="white"/>
</g>
<path d="M109.932 126.854L110.597 127.072L110.815 126.407L110.15 126.189L109.932 126.854ZM108.984 129.75L108.766 130.415L109.431 130.633L109.649 129.968L108.984 129.75ZM88.3804 123.004L87.7152 122.786L87.4974 123.452L88.1626 123.669L88.3804 123.004ZM96.9434 96.8508L97.1612 96.1856L96.496 95.9677L96.2782 96.633L96.9434 96.8508ZM116.786 103.347L117.451 103.565L117.669 102.9L117.004 102.682L116.786 103.347ZM115.838 106.243L115.62 106.908L116.285 107.126L116.503 106.461L115.838 106.243ZM99.5406 100.907L99.7585 100.242L99.0932 100.024L98.8754 100.689L99.5406 100.907ZM96.7937 109.297L96.1284 109.079L95.9106 109.745L96.5759 109.962L96.7937 109.297ZM111.977 114.268L112.642 114.486L112.86 113.821L112.195 113.603L111.977 114.268ZM111.041 117.127L110.823 117.792L111.489 118.01L111.706 117.345L111.041 117.127ZM95.8578 112.156L96.0756 111.49L95.4103 111.273L95.1925 111.938L95.8578 112.156ZM92.8738 121.269L92.2085 121.052L91.9907 121.717L92.656 121.935L92.8738 121.269ZM109.267 126.637L108.319 129.532L109.649 129.968L110.597 127.072L109.267 126.637ZM109.202 129.085L88.5983 122.339L88.1626 123.669L108.766 130.415L109.202 129.085ZM89.0457 123.222L97.6087 97.0686L96.2782 96.633L87.7152 122.786L89.0457 123.222ZM96.7256 97.5161L116.568 104.013L117.004 102.682L97.1612 96.1856L96.7256 97.5161ZM116.121 103.13L115.173 106.025L116.503 106.461L117.451 103.565L116.121 103.13ZM116.056 105.578L99.7585 100.242L99.3228 101.572L115.62 106.908L116.056 105.578ZM98.8754 100.689L96.1284 109.079L97.4589 109.515L100.206 101.125L98.8754 100.689ZM96.5759 109.962L111.759 114.934L112.195 113.603L97.0115 108.632L96.5759 109.962ZM111.312 114.051L110.376 116.909L111.706 117.345L112.642 114.486L111.312 114.051ZM111.259 116.462L96.0756 111.49L95.64 112.821L110.823 117.792L111.259 116.462ZM95.1925 111.938L92.2085 121.052L93.539 121.487L96.523 112.373L95.1925 111.938ZM92.656 121.935L109.714 127.52L110.15 126.189L93.0916 120.604L92.656 121.935ZM136.07 116.382L136.617 116.819L137.247 116.03L136.288 115.717L136.07 116.382ZM121.996 134.01L121.778 134.676L122.24 134.827L122.543 134.447L121.996 134.01ZM118.042 132.716L117.342 132.738L117.358 133.228L117.824 133.381L118.042 132.716ZM117.323 110.244L117.541 109.578L116.591 109.268L116.623 110.266L117.323 110.244ZM120.887 111.411L121.587 111.404L121.582 110.902L121.105 110.745L120.887 111.411ZM121.026 125.924L120.326 125.931L120.326 125.939L121.026 125.924ZM120.985 127.555L120.286 127.527L120.286 127.53L120.985 127.555ZM120.866 130.743L120.167 130.716L120.081 132.977L121.429 131.16L120.866 130.743ZM121.823 129.391L121.249 128.99L121.243 128.999L121.823 129.391ZM122.791 128.003L122.226 127.59L122.221 127.596L122.217 127.603L122.791 128.003ZM123.668 126.831L124.222 127.258L124.225 127.255L123.668 126.831ZM132.525 115.221L132.743 114.556L132.27 114.401L131.968 114.796L132.525 115.221ZM135.523 115.945L121.449 133.574L122.543 134.447L136.617 116.819L135.523 115.945ZM122.213 133.345L118.26 132.051L117.824 133.381L121.778 134.676L122.213 133.345ZM118.742 132.693L118.023 110.221L116.623 110.266L117.342 132.738L118.742 132.693ZM117.105 110.909L120.669 112.076L121.105 110.745L117.541 109.578L117.105 110.909ZM120.187 111.417L120.326 125.931L121.726 125.918L121.587 111.404L120.187 111.417ZM120.326 125.939C120.331 126.19 120.319 126.712 120.286 127.527L121.685 127.583C121.717 126.775 121.732 126.211 121.726 125.91L120.326 125.939ZM120.286 127.53C120.257 128.328 120.218 129.39 120.167 130.716L121.566 130.769C121.617 129.443 121.656 128.38 121.685 127.58L120.286 127.53ZM121.429 131.16C121.754 130.721 122.079 130.262 122.403 129.783L121.243 128.999C120.93 129.462 120.617 129.904 120.304 130.326L121.429 131.16ZM122.396 129.792C122.732 129.312 123.055 128.849 123.366 128.402L122.217 127.603C121.906 128.049 121.584 128.511 121.249 128.99L122.396 129.792ZM123.357 128.415C123.677 127.977 123.965 127.591 124.222 127.258L123.114 126.403C122.848 126.748 122.552 127.144 122.226 127.59L123.357 128.415ZM124.225 127.255L133.081 115.646L131.968 114.796L123.112 126.406L124.225 127.255ZM132.307 115.886L135.852 117.047L136.288 115.717L132.743 114.556L132.307 115.886ZM137.804 128.849L138.022 128.184L137.357 127.966L137.139 128.631L137.804 128.849ZM144.809 138.15L144.623 137.475L144.619 137.477L144.809 138.15ZM147.314 136.525L147.706 135.945L147.157 135.575L146.757 136.101L147.314 136.525ZM149.973 138.32L150.518 138.76L150.996 138.167L150.365 137.74L149.973 138.32ZM134.307 135.513L133.663 135.787L133.664 135.79L134.307 135.513ZM139.388 119.996L139.033 119.393L139.03 119.394L139.388 119.996ZM152.134 133.541L151.916 134.206L152.581 134.424L152.799 133.758L152.134 133.541ZM149.52 129.849L149.302 130.514L150.029 130.752L150.202 130.008L149.52 129.849ZM149.419 124.698L148.78 124.985L148.782 124.989L149.419 124.698ZM141.661 122.343L141.304 121.741L141.303 121.741L141.661 122.343ZM138.68 126.3L138.024 126.056L137.771 126.738L138.462 126.965L138.68 126.3ZM137.139 128.631C136.359 131.013 136.216 133.114 136.828 134.874L138.151 134.414C137.676 133.051 137.742 131.288 138.47 129.067L137.139 128.631ZM136.828 134.874C137.456 136.678 138.834 137.897 140.834 138.551L141.27 137.221C139.607 136.677 138.61 135.734 138.151 134.414L136.828 134.874ZM140.834 138.551C142.365 139.053 143.766 139.172 144.999 138.824L144.619 137.477C143.738 137.725 142.635 137.668 141.27 137.221L140.834 138.551ZM144.994 138.825C146.193 138.496 147.166 137.875 147.871 136.949L146.757 136.101C146.26 136.754 145.562 137.217 144.623 137.475L144.994 138.825ZM146.922 137.105L149.581 138.9L150.365 137.74L147.706 135.945L146.922 137.105ZM149.428 137.881C148.402 139.153 147.168 139.925 145.714 140.235C144.246 140.547 142.5 140.398 140.449 139.727L140.014 141.057C142.22 141.78 144.226 141.982 146.005 141.604C147.798 141.223 149.306 140.262 150.518 138.76L149.428 137.881ZM140.449 139.727C137.617 138.799 135.831 137.286 134.95 135.237L133.664 135.79C134.743 138.3 136.906 140.04 140.014 141.057L140.449 139.727ZM134.951 135.24C134.076 133.18 134.12 130.487 135.235 127.083L133.904 126.647C132.734 130.222 132.603 133.295 133.663 135.787L134.951 135.24ZM135.235 127.083C136.29 123.862 137.815 121.744 139.745 120.598L139.03 119.394C136.708 120.773 135.022 123.235 133.904 126.647L135.235 127.083ZM139.743 120.599C141.67 119.464 143.964 119.292 146.703 120.189L147.138 118.858C144.11 117.867 141.382 118.009 139.033 119.393L139.743 120.599ZM146.703 120.189C149.522 121.112 151.246 122.61 152.039 124.628L153.342 124.116C152.356 121.606 150.234 119.872 147.138 118.858L146.703 120.189ZM152.039 124.628C152.844 126.678 152.753 129.401 151.615 132.877L152.945 133.313C154.133 129.686 154.315 126.594 153.342 124.116L152.039 124.628ZM151.615 132.877L151.469 133.323L152.799 133.758L152.945 133.313L151.615 132.877ZM152.352 132.875L138.022 128.184L137.587 129.514L151.916 134.206L152.352 132.875ZM150.202 130.008C150.724 127.766 150.724 125.868 150.055 124.407L148.782 124.989C149.263 126.042 149.331 127.578 148.838 129.69L150.202 130.008ZM150.057 124.411C149.385 122.917 148.079 121.9 146.274 121.308L145.839 122.639C147.375 123.142 148.31 123.94 148.78 124.985L150.057 124.411ZM146.274 121.308C144.487 120.723 142.809 120.848 141.304 121.741L142.018 122.945C143.132 122.284 144.384 122.163 145.839 122.639L146.274 121.308ZM141.303 121.741C139.834 122.615 138.756 124.086 138.024 126.056L139.336 126.543C139.993 124.775 140.902 123.608 142.019 122.945L141.303 121.741ZM138.462 126.965L149.302 130.514L149.738 129.183L138.898 125.634L138.462 126.965ZM156.762 145.393L156.544 146.058L157.209 146.276L157.427 145.611L156.762 145.393ZM153.421 144.299L152.755 144.081L152.537 144.747L153.203 144.964L153.421 144.299ZM159.479 125.67L158.81 125.463L158.807 125.475L159.479 125.67ZM159.885 124.179L160.103 123.514L159.336 123.263L159.195 124.057L159.885 124.179ZM163.04 125.212L163.725 125.359L163.857 124.743L163.258 124.547L163.04 125.212ZM162.804 126.121L162.132 125.927L162.129 125.938L162.126 125.95L162.804 126.121ZM162.065 128.695L161.394 128.494L161.199 129.148L161.847 129.36L162.065 128.695ZM162.12 128.713L161.902 129.378L162.295 129.507L162.597 129.226L162.12 128.713ZM165.735 126.649L165.874 127.335L165.877 127.335L165.735 126.649ZM174.061 130.28L173.421 130.563L173.423 130.567L174.061 130.28ZM169.458 149.55L169.24 150.215L169.905 150.433L170.123 149.768L169.458 149.55ZM166.098 148.45L165.433 148.232L165.215 148.897L165.88 149.115L166.098 148.45ZM159.907 133.537L156.096 145.175L157.427 145.611L161.237 133.973L159.907 133.537ZM156.979 144.728L153.638 143.634L153.203 144.964L156.544 146.058L156.979 144.728ZM154.086 144.517L159.258 128.721L157.927 128.285L152.755 144.081L154.086 144.517ZM159.258 128.721C159.644 127.542 159.942 126.589 160.151 125.864L158.807 125.475C158.604 126.178 158.311 127.113 157.927 128.285L159.258 128.721ZM160.148 125.876C160.369 125.158 160.518 124.622 160.574 124.301L159.195 124.057C159.156 124.28 159.034 124.738 158.81 125.463L160.148 125.876ZM159.667 124.844L162.823 125.877L163.258 124.547L160.103 123.514L159.667 124.844ZM162.356 125.065C162.308 125.286 162.235 125.572 162.132 125.927L163.477 126.316C163.584 125.945 163.668 125.624 163.725 125.359L162.356 125.065ZM162.126 125.95C162.036 126.306 161.927 126.699 161.8 127.129L163.142 127.526C163.274 127.082 163.388 126.671 163.483 126.293L162.126 125.95ZM161.8 127.129C161.671 127.565 161.535 128.021 161.394 128.494L162.735 128.895C162.877 128.42 163.013 127.964 163.142 127.526L161.8 127.129ZM161.847 129.36L161.902 129.378L162.338 128.048L162.282 128.029L161.847 129.36ZM162.597 129.226C163.757 128.147 164.85 127.543 165.874 127.335L165.596 125.963C164.242 126.238 162.925 127.009 161.644 128.2L162.597 129.226ZM165.877 127.335C166.933 127.116 168.157 127.213 169.571 127.676L170.006 126.345C168.425 125.828 166.947 125.684 165.593 125.964L165.877 127.335ZM169.571 127.676C171.672 128.364 172.886 129.356 173.421 130.563L174.701 129.996C173.944 128.287 172.31 127.1 170.006 126.345L169.571 127.676ZM173.423 130.567C173.977 131.797 173.958 133.556 173.174 135.949L174.505 136.385C175.334 133.853 175.463 131.687 174.7 129.992L173.423 130.567ZM173.174 135.949L168.793 149.332L170.123 149.768L174.505 136.385L173.174 135.949ZM169.676 148.885L166.316 147.785L165.88 149.115L169.24 150.215L169.676 148.885ZM166.763 148.668L170.932 135.935L169.602 135.499L165.433 148.232L166.763 148.668ZM170.932 135.935C171.569 133.989 171.769 132.348 171.304 131.15L169.999 131.657C170.278 132.374 170.221 133.608 169.602 135.499L170.932 135.935ZM171.304 131.15C170.823 129.909 169.639 129.082 168.029 128.555L167.594 129.885C169.028 130.355 169.738 130.983 169.999 131.657L171.304 131.15ZM168.029 128.555C166.25 127.972 164.583 128.111 163.097 129.031L163.834 130.221C164.925 129.546 166.155 129.414 167.594 129.885L168.029 128.555ZM163.097 129.031C161.625 129.942 160.58 131.481 159.907 133.537L161.237 133.973C161.845 132.118 162.729 130.905 163.834 130.221L163.097 129.031ZM182.277 153.583L182.242 154.282L182.776 154.309L182.942 153.801L182.277 153.583ZM176.117 150.805L175.472 151.078L175.474 151.083L176.117 150.805ZM180.62 133.66L181.286 133.878L181.503 133.213L180.838 132.995L180.62 133.66ZM178.3 132.901L177.635 132.683L177.417 133.348L178.082 133.566L178.3 132.901ZM179.096 130.469L179.314 129.804L178.649 129.586L178.431 130.251L179.096 130.469ZM181.546 131.271L181.329 131.937L181.864 132.112L182.15 131.626L181.546 131.271ZM184.001 127.101L184.219 126.436L183.683 126.261L183.398 126.746L184.001 127.101ZM186.228 127.831L186.893 128.049L187.111 127.383L186.446 127.166L186.228 127.831ZM184.757 132.323L184.092 132.105L183.874 132.77L184.54 132.988L184.757 132.323ZM188.47 133.538L189.135 133.756L189.353 133.091L188.688 132.873L188.47 133.538ZM187.674 135.97L187.456 136.635L188.121 136.853L188.339 136.188L187.674 135.97ZM183.961 134.754L184.179 134.089L183.514 133.871L183.296 134.536L183.961 134.754ZM179.606 149.626L178.948 149.864L178.952 149.875L178.956 149.886L179.606 149.626ZM183.085 151.114L183.75 151.332L184.016 150.52L183.168 150.419L183.085 151.114ZM182.312 152.884C181.19 152.827 180.076 152.619 178.971 152.257L178.535 153.587C179.755 153.987 180.992 154.219 182.242 154.282L182.312 152.884ZM178.971 152.257C177.759 151.86 177.077 151.262 176.759 150.528L175.474 151.083C175.998 152.296 177.074 153.109 178.535 153.587L178.971 152.257ZM176.761 150.533C176.436 149.763 176.431 148.704 176.898 147.28L175.567 146.844C175.045 148.439 174.963 149.876 175.472 151.078L176.761 150.533ZM176.898 147.28L181.286 133.878L179.955 133.443L175.567 146.844L176.898 147.28ZM180.838 132.995L178.518 132.235L178.082 133.566L180.402 134.326L180.838 132.995ZM178.965 133.118L179.761 130.687L178.431 130.251L177.635 132.683L178.965 133.118ZM178.878 131.134L181.329 131.937L181.764 130.606L179.314 129.804L178.878 131.134ZM182.15 131.626L184.604 127.457L183.398 126.746L180.943 130.916L182.15 131.626ZM183.783 127.767L186.01 128.496L186.446 127.166L184.219 126.436L183.783 127.767ZM185.563 127.613L184.092 132.105L185.423 132.54L186.893 128.049L185.563 127.613ZM184.54 132.988L188.252 134.203L188.688 132.873L184.975 131.657L184.54 132.988ZM187.805 133.32L187.008 135.752L188.339 136.188L189.135 133.756L187.805 133.32ZM187.892 135.304L184.179 134.089L183.744 135.42L187.456 136.635L187.892 135.304ZM183.296 134.536L179.145 147.214L180.476 147.65L184.627 134.972L183.296 134.536ZM179.145 147.214C178.819 148.211 178.684 149.135 178.948 149.864L180.264 149.388C180.168 149.122 180.17 148.584 180.476 147.65L179.145 147.214ZM178.956 149.886C179.264 150.653 179.985 151.123 180.852 151.407L181.287 150.077C180.595 149.85 180.34 149.576 180.256 149.365L178.956 149.886ZM180.852 151.407C181.342 151.568 182.072 151.698 183.002 151.809L183.168 150.419C182.253 150.31 181.639 150.192 181.287 150.077L180.852 151.407ZM182.42 150.896L181.612 153.365L182.942 153.801L183.75 151.332L182.42 150.896ZM198.389 157.728L198.179 157.06L198.176 157.061L198.389 157.728ZM186.499 154.184L185.965 154.637L185.97 154.642L186.499 154.184ZM185.127 149.46L185.213 148.766L184.492 148.676L184.43 149.4L185.127 149.46ZM188.267 149.851L188.965 149.892L189.003 149.237L188.353 149.157L188.267 149.851ZM189.252 152.804L188.734 153.275L188.739 153.28L189.252 152.804ZM196.689 155.198L196.506 154.522L196.501 154.524L196.689 155.198ZM196.223 148.963L195.841 149.549L195.842 149.55L196.223 148.963ZM193.099 146.892L192.703 147.468L192.705 147.47L193.099 146.892ZM191.357 145.622L190.905 146.157L190.911 146.162L190.918 146.167L191.357 145.622ZM190.432 144.744L190.958 144.282L190.953 144.276L190.432 144.744ZM192.535 136.123L192.753 136.788L192.754 136.788L192.535 136.123ZM203.615 139.442L203.086 139.901L203.088 139.903L203.615 139.442ZM204.875 144.006L204.74 144.693L205.481 144.838L205.57 144.088L204.875 144.006ZM201.746 143.393L201.05 143.315L200.979 143.956L201.611 144.08L201.746 143.393ZM200.911 140.859L200.382 141.317L200.39 141.327L200.911 140.859ZM192.636 142.28L191.999 142.569L192.003 142.578L192.636 142.28ZM194.622 144.123L194.251 144.716L194.255 144.719L194.622 144.123ZM198.639 146.794L198.23 147.362L198.234 147.365L198.639 146.794ZM201.221 149.078L201.786 148.665L201.784 148.663L201.221 149.078ZM202.227 151.401L201.536 151.514L201.538 151.521L201.539 151.528L202.227 151.401ZM201.311 153.834C200.755 155.531 199.717 156.576 198.179 157.06L198.599 158.395C200.603 157.765 201.957 156.36 202.641 154.27L201.311 153.834ZM198.176 157.061C196.608 157.561 194.603 157.457 192.107 156.64L191.671 157.971C194.322 158.839 196.65 159.017 198.601 158.395L198.176 157.061ZM192.107 156.64C189.664 155.84 188.004 154.852 187.028 153.726L185.97 154.642C187.181 156.041 189.114 157.133 191.671 157.971L192.107 156.64ZM187.032 153.731C186.092 152.622 185.675 151.24 185.824 149.521L184.43 149.4C184.253 151.438 184.75 153.204 185.965 154.637L187.032 153.731ZM185.04 150.155L188.18 150.546L188.353 149.157L185.213 148.766L185.04 150.155ZM187.568 149.811C187.49 151.15 187.871 152.324 188.734 153.275L189.771 152.334C189.183 151.687 188.907 150.892 188.965 149.892L187.568 149.811ZM188.739 153.28C189.581 154.189 190.863 154.891 192.503 155.428L192.939 154.097C191.411 153.597 190.381 152.993 189.766 152.329L188.739 153.28ZM192.503 155.428C194.238 155.995 195.724 156.194 196.877 155.873L196.501 154.524C195.754 154.732 194.595 154.639 192.939 154.097L192.503 155.428ZM196.872 155.874C198.087 155.545 198.903 154.704 199.308 153.466L197.977 153.031C197.702 153.872 197.215 154.33 196.506 154.523L196.872 155.874ZM199.308 153.466C199.623 152.503 199.554 151.564 199.067 150.705L197.849 151.396C198.126 151.884 198.181 152.41 197.977 153.031L199.308 153.466ZM199.067 150.705C198.603 149.888 197.748 149.118 196.604 148.375L195.842 149.55C196.913 150.245 197.548 150.867 197.849 151.396L199.067 150.705ZM196.605 148.376C195.297 147.524 194.261 146.836 193.494 146.313L192.705 147.47C193.484 148.001 194.529 148.694 195.841 149.549L196.605 148.376ZM193.496 146.315C192.741 145.795 192.177 145.384 191.796 145.077L190.918 146.167C191.339 146.507 191.937 146.942 192.703 147.468L193.496 146.315ZM191.809 145.088C191.425 144.764 191.146 144.496 190.958 144.282L189.906 145.206C190.157 145.492 190.495 145.81 190.905 146.157L191.809 145.088ZM190.953 144.276C190.351 143.606 189.961 142.915 189.759 142.201L188.412 142.582C188.68 143.53 189.188 144.407 189.911 145.212L190.953 144.276ZM189.759 142.201C189.569 141.53 189.594 140.764 189.884 139.879L188.554 139.443C188.195 140.538 188.132 141.592 188.412 142.582L189.759 142.201ZM189.884 139.879C190.425 138.226 191.385 137.236 192.753 136.788L192.318 135.458C190.463 136.065 189.212 137.433 188.554 139.443L189.884 139.879ZM192.754 136.788C194.182 136.318 196.079 136.417 198.509 137.212L198.944 135.882C196.374 135.04 194.144 134.857 192.317 135.458L192.754 136.788ZM198.509 137.212C200.655 137.915 202.155 138.826 203.086 139.901L204.144 138.984C202.987 137.649 201.228 136.629 198.944 135.882L198.509 137.212ZM203.088 139.903C203.994 140.94 204.377 142.254 204.179 143.924L205.57 144.088C205.806 142.091 205.349 140.363 204.142 138.982L203.088 139.903ZM205.009 143.319L201.881 142.706L201.611 144.08L204.74 144.693L205.009 143.319ZM202.442 143.47C202.571 142.312 202.223 141.271 201.432 140.391L200.39 141.327C200.925 141.922 201.134 142.57 201.05 143.315L202.442 143.47ZM201.44 140.4C200.681 139.525 199.548 138.874 198.118 138.406L197.682 139.737C198.974 140.159 199.848 140.701 200.382 141.317L201.44 140.4ZM198.118 138.406C196.567 137.898 195.222 137.713 194.16 137.986L194.508 139.342C195.181 139.169 196.214 139.256 197.682 139.737L198.118 138.406ZM194.16 137.986C193.037 138.275 192.282 139.042 191.911 140.173L193.242 140.608C193.479 139.883 193.896 139.499 194.508 139.342L194.16 137.986ZM191.911 140.173C191.641 140.997 191.655 141.81 191.999 142.569L193.274 141.991C193.093 141.592 193.066 141.145 193.242 140.608L191.911 140.173ZM192.003 142.578C192.36 143.338 193.173 144.042 194.251 144.716L194.994 143.529C193.957 142.881 193.445 142.356 193.27 141.982L192.003 142.578ZM194.255 144.719C195.667 145.588 196.992 146.469 198.23 147.362L199.048 146.226C197.781 145.312 196.428 144.412 194.989 143.527L194.255 144.719ZM198.234 147.365C199.477 148.246 200.261 148.955 200.657 149.493L201.784 148.663C201.251 147.938 200.314 147.124 199.044 146.223L198.234 147.365ZM200.655 149.491C201.137 150.15 201.424 150.823 201.536 151.514L202.918 151.289C202.767 150.358 202.383 149.482 201.786 148.665L200.655 149.491ZM201.539 151.528C201.662 152.19 201.599 152.953 201.311 153.834L202.641 154.27C202.985 153.22 203.09 152.216 202.916 151.274L201.539 151.528Z" fill="white" mask="url(#path-3-outside-1_18_102)"/>
<mask id="path-5-outside-2_18_102" maskUnits="userSpaceOnUse" x="47.8971" y="28.6551" width="170.745" height="79.1143" fill="black">
<rect fill="white" x="47.8971" y="28.6551" width="170.745" height="79.1143"/>
<path d="M77.9116 50.1865C77.2065 53.0032 76.0499 55.2909 74.442 57.0494C72.8466 58.811 70.9325 59.9963 68.6996 60.6051C66.4793 61.217 64.0808 61.2005 61.504 60.5554L51.5192 58.0559L58.2021 31.3601L67.0312 33.5703C71.5531 34.7023 74.7547 36.7118 76.636 39.5989C78.533 42.4764 78.9582 46.0056 77.9116 50.1865ZM74.2739 49.2759C75.1023 45.9665 74.8237 43.219 73.438 41.0332C72.0681 38.8379 69.6654 37.3103 66.2297 36.4502L61.0952 35.1648L55.8637 56.063L61.8129 57.5523C63.796 58.0487 65.6229 58.0429 67.2936 57.535C68.977 57.0303 70.4237 56.077 71.6337 54.6752C72.8436 53.2735 73.7237 51.4737 74.2739 49.2759ZM85.153 55.12L82.4779 65.8059L79.0675 64.9522L83.0042 49.2265C83.1845 48.5065 83.3616 47.7455 83.5355 46.9434C83.7221 46.1445 83.9055 45.3045 84.0858 44.4235L87.3067 45.2298C87.1865 45.8172 87.0742 46.3461 86.9699 46.8166C86.8781 47.2903 86.7943 47.7055 86.7184 48.0624C86.6457 48.4066 86.5793 48.6987 86.5192 48.9387C86.4749 49.1692 86.4385 49.3413 86.4101 49.455L86.4859 49.4739C87.1747 48.3309 87.8318 47.4753 88.4573 46.9071C89.0575 46.3862 89.6718 46.0769 90.3003 45.9792C90.9319 45.8689 91.6646 45.918 92.4982 46.1267C92.9656 46.2437 93.4108 46.4223 93.8339 46.6624L93.0513 49.7886C92.6534 49.5548 92.063 49.3399 91.2798 49.1438C89.8652 48.7897 88.6318 49.132 87.5799 50.1706C86.5311 51.1966 85.7221 52.8464 85.153 55.12ZM111.82 62.2387C110.922 65.8259 109.464 68.2998 107.446 69.6603C105.427 71.0207 102.915 71.3247 99.9087 70.5721C96.9151 69.8227 94.8818 68.3473 93.8088 66.1458C92.7389 63.9317 92.6356 61.1005 93.4988 57.6522C94.3842 54.1155 95.8124 51.6543 97.7834 50.2686C99.7671 48.886 102.287 48.5773 105.344 49.3425C108.477 50.1267 110.565 51.569 111.61 53.6694C112.658 55.7571 112.728 58.6136 111.82 62.2387ZM108.239 61.3423C108.948 58.5129 109.038 56.3544 108.511 54.8669C108 53.3698 106.753 52.3731 104.77 51.8766C102.774 51.377 101.164 51.6718 99.938 52.7609C98.7281 53.8406 97.7754 55.7698 97.0797 58.5487C96.4031 61.2517 96.3298 63.3944 96.8598 64.9767C97.4056 66.5496 98.6196 67.5716 100.502 68.0427C102.548 68.555 104.171 68.2634 105.372 67.1679C106.585 66.0756 107.54 64.1338 108.239 61.3423ZM127.865 61.7653L120.523 75.3299L116.582 74.3433L115.973 52.406L119.345 53.2502L119.317 68.3234C119.317 68.7529 119.309 69.2945 119.293 69.9482C119.277 70.6019 119.247 71.2856 119.202 71.9993C119.49 71.4404 119.777 70.8815 120.065 70.3227C120.365 69.767 120.664 69.2176 120.961 68.6745L128.231 55.4747L131.888 56.3901L131.945 71.3638C131.948 71.9954 131.943 72.6318 131.93 73.2728C131.93 73.9171 131.925 74.5534 131.915 75.1819C132.206 74.6103 132.503 74.0136 132.806 73.3915C133.126 72.76 133.412 72.2075 133.664 71.7339L140.812 58.624L144.147 59.4588L133.141 78.4887L129.181 77.4974L129.229 62.1068C129.235 61.5447 129.248 60.9842 129.267 60.4252C129.302 59.8568 129.329 59.2931 129.348 58.7341C129.228 58.9993 129.015 59.4493 128.708 60.0839C128.418 60.7091 128.136 61.2696 127.865 61.7653ZM148.013 69.5878L145.04 81.4673L141.629 80.6135L145.666 64.49C145.966 63.29 146.194 62.3269 146.349 61.6006C146.519 60.8649 146.619 60.3596 146.647 60.0849L149.868 60.8912C149.834 61.1375 149.777 61.4454 149.698 61.8148C149.631 62.1875 149.549 62.5964 149.451 63.0416C149.353 63.4869 149.25 63.9511 149.143 64.4342L149.199 64.4485C150.337 63.2298 151.49 62.4581 152.658 62.1331C153.842 61.7988 155.199 61.8229 156.727 62.2055C158.976 62.7683 160.474 63.7541 161.222 65.1628C161.982 66.5747 162.048 68.5374 161.419 71.051L157.999 84.7115L154.57 83.853L157.823 70.8556C158.314 68.8978 158.339 67.4546 157.901 66.526C157.462 65.5974 156.466 64.9387 154.912 64.5497C153.27 64.1387 151.835 64.3767 150.606 65.2637C149.377 66.1507 148.513 67.5921 148.013 69.5878ZM173.583 58.7338L172.767 61.9926L169.356 61.1389L170.172 57.8801L173.583 58.7338ZM171.676 66.3504L166.544 86.8506L163.134 85.9968L168.266 65.4966L171.676 66.3504ZM178.252 77.1576L175.278 89.0371L171.868 88.1834L175.904 72.0598C176.205 70.8598 176.432 69.8967 176.587 69.1704C176.758 68.4347 176.858 67.9294 176.886 67.6547L180.107 68.461C180.072 68.7073 180.015 69.0152 179.936 69.3847C179.87 69.7573 179.788 70.1662 179.69 70.6115C179.592 71.0567 179.489 71.5209 179.381 72.0041L179.438 72.0183C180.575 70.7996 181.728 70.0279 182.897 69.703C184.081 69.3686 185.438 69.3927 186.966 69.7753C189.214 70.3381 190.712 71.3239 191.46 72.7326C192.221 74.1445 192.287 76.1072 191.658 78.6208L188.238 92.2813L184.809 91.4228L188.062 78.4255C188.552 76.4676 188.578 75.0244 188.139 74.0958C187.701 73.1672 186.705 72.5085 185.151 72.1196C183.509 71.7085 182.074 71.9465 180.845 72.8335C179.616 73.7205 178.752 75.1619 178.252 77.1576ZM199.144 103.568C196.908 103.009 195.238 102.121 194.133 100.905C193.025 99.701 192.484 98.2434 192.509 96.5318L196.062 96.8976C196.052 97.9019 196.369 98.7531 197.013 99.4512C197.667 100.165 198.625 100.68 199.888 100.996C201.581 101.42 202.975 101.239 204.071 100.453C205.18 99.6701 205.982 98.2871 206.479 96.304L207.304 93.0073L207.266 92.9979C206.293 94.1502 205.161 94.9204 203.869 95.3085C202.581 95.6838 201.185 95.6834 199.682 95.3071C197.168 94.6779 195.526 93.381 194.756 91.4165C193.999 89.4551 194.068 86.6871 194.963 83.1125C195.87 79.4874 197.17 76.9741 198.864 75.5724C200.572 74.1613 202.722 73.7799 205.311 74.4281C206.764 74.7917 207.937 75.4411 208.83 76.3761C209.739 77.3017 210.331 78.4498 210.605 79.8205L210.643 79.83C210.706 79.5774 210.817 79.189 210.975 78.6648C211.136 78.128 211.296 77.6243 211.454 77.1538C211.612 76.6833 211.71 76.426 211.748 76.3818L214.988 77.1928C214.741 77.8559 214.349 79.2611 213.812 81.4084L209.889 97.0773C209.168 99.9571 207.914 101.938 206.126 103.021C204.338 104.104 202.011 104.286 199.144 103.568ZM208.917 86.5655C209.54 84.0772 209.518 81.9913 208.852 80.3079C208.202 78.615 207.088 77.5709 205.509 77.1756C203.766 76.7393 202.338 77.0531 201.227 78.117C200.115 79.1809 199.204 81.1275 198.496 83.9568C197.794 86.7609 197.662 88.8689 198.101 90.2807C198.54 91.6924 199.662 92.6244 201.468 93.0766C203.085 93.4813 204.574 93.1091 205.936 91.96C207.313 90.8015 208.307 89.0033 208.917 86.5655Z"/>
</mask>
<g filter="url(#filter1_i_18_102)">
<path d="M77.9116 50.1865C77.2065 53.0032 76.0499 55.2909 74.442 57.0494C72.8466 58.811 70.9325 59.9963 68.6996 60.6051C66.4793 61.217 64.0808 61.2005 61.504 60.5554L51.5192 58.0559L58.2021 31.3601L67.0312 33.5703C71.5531 34.7023 74.7547 36.7118 76.636 39.5989C78.533 42.4764 78.9582 46.0056 77.9116 50.1865ZM74.2739 49.2759C75.1023 45.9665 74.8237 43.219 73.438 41.0332C72.0681 38.8379 69.6654 37.3103 66.2297 36.4502L61.0952 35.1648L55.8637 56.063L61.8129 57.5523C63.796 58.0487 65.6229 58.0429 67.2936 57.535C68.977 57.0303 70.4237 56.077 71.6337 54.6752C72.8436 53.2735 73.7237 51.4737 74.2739 49.2759ZM85.153 55.12L82.4779 65.8059L79.0675 64.9522L83.0042 49.2265C83.1845 48.5065 83.3616 47.7455 83.5355 46.9434C83.7221 46.1445 83.9055 45.3045 84.0858 44.4235L87.3067 45.2298C87.1865 45.8172 87.0742 46.3461 86.9699 46.8166C86.8781 47.2903 86.7943 47.7055 86.7184 48.0624C86.6457 48.4066 86.5793 48.6987 86.5192 48.9387C86.4749 49.1692 86.4385 49.3413 86.4101 49.455L86.4859 49.4739C87.1747 48.3309 87.8318 47.4753 88.4573 46.9071C89.0575 46.3862 89.6718 46.0769 90.3003 45.9792C90.9319 45.8689 91.6646 45.918 92.4982 46.1267C92.9656 46.2437 93.4108 46.4223 93.8339 46.6624L93.0513 49.7886C92.6534 49.5548 92.063 49.3399 91.2798 49.1438C89.8652 48.7897 88.6318 49.132 87.5799 50.1706C86.5311 51.1966 85.7221 52.8464 85.153 55.12ZM111.82 62.2387C110.922 65.8259 109.464 68.2998 107.446 69.6603C105.427 71.0207 102.915 71.3247 99.9087 70.5721C96.9151 69.8227 94.8818 68.3473 93.8088 66.1458C92.7389 63.9317 92.6356 61.1005 93.4988 57.6522C94.3842 54.1155 95.8124 51.6543 97.7834 50.2686C99.7671 48.886 102.287 48.5773 105.344 49.3425C108.477 50.1267 110.565 51.569 111.61 53.6694C112.658 55.7571 112.728 58.6136 111.82 62.2387ZM108.239 61.3423C108.948 58.5129 109.038 56.3544 108.511 54.8669C108 53.3698 106.753 52.3731 104.77 51.8766C102.774 51.377 101.164 51.6718 99.938 52.7609C98.7281 53.8406 97.7754 55.7698 97.0797 58.5487C96.4031 61.2517 96.3298 63.3944 96.8598 64.9767C97.4056 66.5496 98.6196 67.5716 100.502 68.0427C102.548 68.555 104.171 68.2634 105.372 67.1679C106.585 66.0756 107.54 64.1338 108.239 61.3423ZM127.865 61.7653L120.523 75.3299L116.582 74.3433L115.973 52.406L119.345 53.2502L119.317 68.3234C119.317 68.7529 119.309 69.2945 119.293 69.9482C119.277 70.6019 119.247 71.2856 119.202 71.9993C119.49 71.4404 119.777 70.8815 120.065 70.3227C120.365 69.767 120.664 69.2176 120.961 68.6745L128.231 55.4747L131.888 56.3901L131.945 71.3638C131.948 71.9954 131.943 72.6318 131.93 73.2728C131.93 73.9171 131.925 74.5534 131.915 75.1819C132.206 74.6103 132.503 74.0136 132.806 73.3915C133.126 72.76 133.412 72.2075 133.664 71.7339L140.812 58.624L144.147 59.4588L133.141 78.4887L129.181 77.4974L129.229 62.1068C129.235 61.5447 129.248 60.9842 129.267 60.4252C129.302 59.8568 129.329 59.2931 129.348 58.7341C129.228 58.9993 129.015 59.4493 128.708 60.0839C128.418 60.7091 128.136 61.2696 127.865 61.7653ZM148.013 69.5878L145.04 81.4673L141.629 80.6135L145.666 64.49C145.966 63.29 146.194 62.3269 146.349 61.6006C146.519 60.8649 146.619 60.3596 146.647 60.0849L149.868 60.8912C149.834 61.1375 149.777 61.4454 149.698 61.8148C149.631 62.1875 149.549 62.5964 149.451 63.0416C149.353 63.4869 149.25 63.9511 149.143 64.4342L149.199 64.4485C150.337 63.2298 151.49 62.4581 152.658 62.1331C153.842 61.7988 155.199 61.8229 156.727 62.2055C158.976 62.7683 160.474 63.7541 161.222 65.1628C161.982 66.5747 162.048 68.5374 161.419 71.051L157.999 84.7115L154.57 83.853L157.823 70.8556C158.314 68.8978 158.339 67.4546 157.901 66.526C157.462 65.5974 156.466 64.9387 154.912 64.5497C153.27 64.1387 151.835 64.3767 150.606 65.2637C149.377 66.1507 148.513 67.5921 148.013 69.5878ZM173.583 58.7338L172.767 61.9926L169.356 61.1389L170.172 57.8801L173.583 58.7338ZM171.676 66.3504L166.544 86.8506L163.134 85.9968L168.266 65.4966L171.676 66.3504ZM178.252 77.1576L175.278 89.0371L171.868 88.1834L175.904 72.0598C176.205 70.8598 176.432 69.8967 176.587 69.1704C176.758 68.4347 176.858 67.9294 176.886 67.6547L180.107 68.461C180.072 68.7073 180.015 69.0152 179.936 69.3847C179.87 69.7573 179.788 70.1662 179.69 70.6115C179.592 71.0567 179.489 71.5209 179.381 72.0041L179.438 72.0183C180.575 70.7996 181.728 70.0279 182.897 69.703C184.081 69.3686 185.438 69.3927 186.966 69.7753C189.214 70.3381 190.712 71.3239 191.46 72.7326C192.221 74.1445 192.287 76.1072 191.658 78.6208L188.238 92.2813L184.809 91.4228L188.062 78.4255C188.552 76.4676 188.578 75.0244 188.139 74.0958C187.701 73.1672 186.705 72.5085 185.151 72.1196C183.509 71.7085 182.074 71.9465 180.845 72.8335C179.616 73.7205 178.752 75.1619 178.252 77.1576ZM199.144 103.568C196.908 103.009 195.238 102.121 194.133 100.905C193.025 99.701 192.484 98.2434 192.509 96.5318L196.062 96.8976C196.052 97.9019 196.369 98.7531 197.013 99.4512C197.667 100.165 198.625 100.68 199.888 100.996C201.581 101.42 202.975 101.239 204.071 100.453C205.18 99.6701 205.982 98.2871 206.479 96.304L207.304 93.0073L207.266 92.9979C206.293 94.1502 205.161 94.9204 203.869 95.3085C202.581 95.6838 201.185 95.6834 199.682 95.3071C197.168 94.6779 195.526 93.381 194.756 91.4165C193.999 89.4551 194.068 86.6871 194.963 83.1125C195.87 79.4874 197.17 76.9741 198.864 75.5724C200.572 74.1613 202.722 73.7799 205.311 74.4281C206.764 74.7917 207.937 75.4411 208.83 76.3761C209.739 77.3017 210.331 78.4498 210.605 79.8205L210.643 79.83C210.706 79.5774 210.817 79.189 210.975 78.6648C211.136 78.128 211.296 77.6243 211.454 77.1538C211.612 76.6833 211.71 76.426 211.748 76.3818L214.988 77.1928C214.741 77.8559 214.349 79.2611 213.812 81.4084L209.889 97.0773C209.168 99.9571 207.914 101.938 206.126 103.021C204.338 104.104 202.011 104.286 199.144 103.568ZM208.917 86.5655C209.54 84.0772 209.518 81.9913 208.852 80.3079C208.202 78.615 207.088 77.5709 205.509 77.1756C203.766 76.7393 202.338 77.0531 201.227 78.117C200.115 79.1809 199.204 81.1275 198.496 83.9568C197.794 86.7609 197.662 88.8689 198.101 90.2807C198.54 91.6924 199.662 92.6244 201.468 93.0766C203.085 93.4813 204.574 93.1091 205.936 91.96C207.313 90.8015 208.307 89.0033 208.917 86.5655Z" fill="white"/>
</g>
<path d="M74.442 57.0494L73.9254 56.577L73.9231 56.5795L74.442 57.0494ZM68.6996 60.6051L68.5154 59.9297L68.5136 59.9302L68.6996 60.6051ZM51.5192 58.0559L50.8401 57.8859L50.6701 58.5649L51.3492 58.7349L51.5192 58.0559ZM58.2021 31.3601L58.372 30.6811L57.693 30.5111L57.523 31.1901L58.2021 31.3601ZM76.636 39.5989L76.0495 39.981L76.0515 39.9842L76.636 39.5989ZM73.438 41.0332L72.8441 41.4038L72.8468 41.408L73.438 41.0332ZM61.0952 35.1648L61.2652 34.4858L60.5861 34.3158L60.4161 34.9949L61.0952 35.1648ZM55.8637 56.063L55.1846 55.893L55.0146 56.572L55.6937 56.742L55.8637 56.063ZM67.2936 57.535L67.0926 56.8645L67.09 56.8653L67.2936 57.535ZM77.2326 50.0165C76.5496 52.7449 75.4396 54.9211 73.9254 56.577L74.9586 57.5217C76.6603 55.6607 77.8634 53.2615 78.5907 50.3565L77.2326 50.0165ZM73.9231 56.5795C72.4149 58.2449 70.6158 59.3571 68.5154 59.9297L68.8837 61.2804C71.2491 60.6355 73.2783 59.3771 74.9608 57.5192L73.9231 56.5795ZM68.5136 59.9302C66.4264 60.5055 64.1519 60.4967 61.674 59.8764L61.3341 61.2345C64.0097 61.9043 66.5322 61.9285 68.8856 61.2799L68.5136 59.9302ZM61.674 59.8764L51.6892 57.3768L51.3492 58.7349L61.3341 61.2345L61.674 59.8764ZM52.1982 58.2259L58.8811 31.5301L57.523 31.1901L50.8401 57.8859L52.1982 58.2259ZM58.0321 32.0392L66.8612 34.2494L67.2012 32.8913L58.372 30.6811L58.0321 32.0392ZM66.8612 34.2494C71.2732 35.3539 74.2944 37.2876 76.0495 39.981L77.2224 39.2167C75.215 36.1361 71.833 34.0508 67.2012 32.8913L66.8612 34.2494ZM76.0515 39.9842C77.8148 42.6588 78.2444 45.9748 77.2326 50.0165L78.5907 50.3565C79.6721 46.0364 79.2512 42.2941 77.2204 39.2136L76.0515 39.9842ZM74.9529 49.4458C75.8124 46.0124 75.5473 43.053 74.0292 40.6584L72.8468 41.408C74.1001 43.3849 74.3922 45.9206 73.5948 49.1059L74.9529 49.4458ZM74.0319 40.6626C72.5352 38.2641 69.9452 36.6587 66.3997 35.7712L66.0597 37.1292C69.3855 37.9618 71.6011 39.4118 72.8442 41.4038L74.0319 40.6626ZM66.3997 35.7712L61.2652 34.4858L60.9252 35.8439L66.0597 37.1292L66.3997 35.7712ZM60.4161 34.9949L55.1846 55.893L56.5427 56.2329L61.7742 35.3348L60.4161 34.9949ZM55.6937 56.742L61.6429 58.2313L61.9829 56.8732L56.0337 55.3839L55.6937 56.742ZM61.6429 58.2313C63.7278 58.7532 65.6857 58.7555 67.4972 58.2048L67.09 56.8653C65.5601 57.3304 63.8641 57.3442 61.9829 56.8732L61.6429 58.2313ZM67.4947 58.2055C69.3127 57.6604 70.8714 56.6296 72.1636 55.1326L71.1038 54.2178C69.976 55.5244 68.6413 56.4002 67.0926 56.8645L67.4947 58.2055ZM72.1636 55.1326C73.4592 53.6315 74.382 51.7264 74.9529 49.4458L73.5948 49.1059C73.0654 51.2209 72.228 52.9154 71.1038 54.2178L72.1636 55.1326ZM82.4779 65.8059L82.3079 66.485L82.987 66.655L83.157 65.9759L82.4779 65.8059ZM79.0675 64.9522L78.3885 64.7822L78.2185 65.4612L78.8976 65.6312L79.0675 64.9522ZM83.5355 46.9434L82.8538 46.7842L82.8514 46.7951L83.5355 46.9434ZM84.0858 44.4235L84.2558 43.7445L83.5466 43.5669L83.4 44.2832L84.0858 44.4235ZM87.3067 45.2298L87.9925 45.3701L88.1269 44.7135L87.4767 44.5508L87.3067 45.2298ZM86.9699 46.8166L86.2865 46.665L86.2844 46.6742L86.2826 46.6835L86.9699 46.8166ZM86.7184 48.0624L86.0337 47.9167L86.0336 47.9176L86.7184 48.0624ZM86.5192 48.9387L85.8401 48.7687L85.8354 48.7875L85.8318 48.8066L86.5192 48.9387ZM86.4101 49.455L85.731 49.285L85.561 49.964L86.2401 50.134L86.4101 49.455ZM86.4859 49.4739L86.3159 50.153L86.8182 50.2787L87.0854 49.8352L86.4859 49.4739ZM88.4573 46.9071L87.9985 46.3784L87.9925 46.3836L87.9866 46.389L88.4573 46.9071ZM90.3003 45.9792L90.4078 46.671L90.4207 46.6688L90.3003 45.9792ZM93.8339 46.6624L94.5129 46.8324L94.6421 46.3163L94.1794 46.0537L93.8339 46.6624ZM93.0513 49.7886L92.6966 50.3921L93.5031 50.8662L93.7303 49.9586L93.0513 49.7886ZM87.5799 50.1706L88.0694 50.671L88.0717 50.6687L87.5799 50.1706ZM84.4739 54.95L81.7989 65.6359L83.157 65.9759L85.832 55.29L84.4739 54.95ZM82.6479 65.1269L79.2375 64.2731L78.8976 65.6312L82.3079 66.485L82.6479 65.1269ZM79.7466 65.1222L83.6833 49.3965L82.3252 49.0565L78.3885 64.7822L79.7466 65.1222ZM83.6833 49.3965C83.8655 48.6686 84.0442 47.9004 84.2196 47.0918L82.8514 46.7951C82.6789 47.5907 82.5034 48.3444 82.3252 49.0565L83.6833 49.3965ZM84.2172 47.1026C84.4053 46.2969 84.5901 45.4506 84.7716 44.5638L83.4 44.2832C83.2209 45.1585 83.0388 45.9921 82.8538 46.7842L84.2172 47.1026ZM83.9158 45.1025L87.1367 45.9089L87.4767 44.5508L84.2558 43.7445L83.9158 45.1025ZM86.6209 45.0895C86.5013 45.6739 86.3898 46.199 86.2865 46.665L87.6533 46.9682C87.7586 46.4932 87.8717 45.9604 87.9925 45.3701L86.6209 45.0895ZM86.2826 46.6835C86.1915 47.1542 86.1085 47.5651 86.0337 47.9167L87.4031 48.208C87.4801 47.8459 87.5648 47.4263 87.6571 46.9497L86.2826 46.6835ZM86.0336 47.9176C85.9619 48.2566 85.8975 48.5397 85.8401 48.7687L87.1982 49.1086C87.2611 48.8576 87.3294 48.5566 87.4033 48.2071L86.0336 47.9176ZM85.8318 48.8066C85.788 49.0343 85.7546 49.1908 85.731 49.285L87.0891 49.6249C87.1225 49.4917 87.1618 49.304 87.2066 49.0707L85.8318 48.8066ZM86.2401 50.134L86.3159 50.153L86.6559 48.7949L86.5801 48.7759L86.2401 50.134ZM87.0854 49.8352C87.7569 48.7209 88.3732 47.9292 88.928 47.4252L87.9866 46.389C87.2904 47.0215 86.5924 47.9409 85.8863 49.1126L87.0854 49.8352ZM88.9161 47.4357C89.4415 46.9797 89.9383 46.7439 90.4078 46.6709L90.1927 45.2875C89.4052 45.4099 88.6734 45.7927 87.9985 46.3784L88.9161 47.4357ZM90.4207 46.6688C90.929 46.58 91.559 46.6132 92.3282 46.8058L92.6682 45.4477C91.7701 45.2229 90.9348 45.1578 90.1798 45.2896L90.4207 46.6688ZM92.3282 46.8058C92.7335 46.9073 93.1198 47.062 93.4883 47.2712L94.1794 46.0537C93.7018 45.7826 93.1976 45.5802 92.6682 45.4477L92.3282 46.8058ZM93.1548 46.4925L92.3722 49.6186L93.7303 49.9586L94.5129 46.8324L93.1548 46.4925ZM93.406 49.1851C92.9229 48.9013 92.257 48.6669 91.4498 48.4648L91.1098 49.8229C91.8689 50.0129 92.3839 50.2084 92.6966 50.3921L93.406 49.1851ZM91.4498 48.4648C89.7941 48.0503 88.311 48.465 87.0881 49.6725L88.0717 50.6687C88.9527 49.7989 89.9362 49.5291 91.1098 49.8229L91.4498 48.4648ZM87.0904 49.6702C85.9093 50.8257 85.0575 52.619 84.4739 54.95L85.832 55.29C86.3868 53.0739 87.153 51.5676 88.0694 50.671L87.0904 49.6702ZM93.8088 66.1458L93.1785 66.4504L93.1796 66.4525L93.8088 66.1458ZM97.7834 50.2686L97.3832 49.6943L97.3808 49.6959L97.7834 50.2686ZM111.61 53.6694L110.983 53.9811L110.984 53.9834L111.61 53.6694ZM108.511 54.8669L107.849 55.093L107.851 55.1006L108.511 54.8669ZM99.938 52.7609L99.473 52.2377L99.4719 52.2386L99.938 52.7609ZM96.8598 64.9767L96.196 65.1991L96.1985 65.2062L96.8598 64.9767ZM105.372 67.1679L104.903 66.6477L104.9 66.6509L105.372 67.1679ZM111.141 62.0687C110.264 65.5726 108.871 67.8554 107.054 69.0798L107.837 70.2407C110.057 68.7441 111.58 66.0793 112.499 62.4087L111.141 62.0687ZM107.054 69.0798C105.243 70.3006 102.948 70.6115 100.079 69.8931L99.7387 71.2512C102.881 72.0379 105.611 71.7408 107.837 70.2407L107.054 69.0798ZM100.079 69.8931C97.2291 69.1797 95.3977 67.8081 94.438 65.8391L93.1796 66.4525C94.3659 68.8865 96.6011 70.4657 99.7387 71.2512L100.079 69.8931ZM94.4391 65.8413C93.4664 63.8283 93.3371 61.1807 94.1779 57.8222L92.8198 57.4822C91.9341 61.0203 92.0115 64.0351 93.1785 66.4504L94.4391 65.8413ZM94.1779 57.8222C95.0426 54.3679 96.4079 52.0913 98.186 50.8412L97.3808 49.6959C95.2168 51.2173 93.7258 53.8632 92.8198 57.4822L94.1779 57.8222ZM98.1837 50.8428C99.9544 49.6087 102.25 49.2896 105.174 50.0215L105.514 48.6634C102.324 47.865 99.5798 48.1633 97.3832 49.6943L98.1837 50.8428ZM105.174 50.0215C108.186 50.7756 110.06 52.1258 110.983 53.9811L112.236 53.3576C111.07 51.0121 108.767 49.4777 105.514 48.6634L105.174 50.0215ZM110.984 53.9834C111.923 55.8543 112.031 58.5143 111.141 62.0687L112.499 62.4087C113.424 58.7129 113.392 55.66 112.235 53.3554L110.984 53.9834ZM108.918 61.5123C109.636 58.6465 109.769 56.3205 109.171 54.6331L107.851 55.1006C108.308 56.3884 108.259 58.3793 107.56 61.1723L108.918 61.5123ZM109.174 54.6407C108.564 52.8538 107.078 51.7327 104.94 51.1976L104.6 52.5557C106.429 53.0134 107.437 53.8858 107.849 55.093L109.174 54.6407ZM104.94 51.1976C102.784 50.6579 100.916 50.9555 99.473 52.2377L100.403 53.2842C101.411 52.3881 102.764 52.0961 104.6 52.5557L104.94 51.1976ZM99.4719 52.2386C98.104 53.4593 97.1075 55.5553 96.4007 58.3787L97.7588 58.7187C98.4433 55.9844 99.3522 54.2218 100.404 53.2832L99.4719 52.2386ZM96.4007 58.3787C95.711 61.1337 95.6038 63.4311 96.1961 65.1991L97.5236 64.7544C97.0557 63.3577 97.0951 61.3697 97.7588 58.7187L96.4007 58.3787ZM96.1985 65.2062C96.8356 67.042 98.2645 68.2043 100.332 68.7218L100.672 67.3637C98.9746 66.9389 97.9757 66.0572 97.5211 64.7472L96.1985 65.2062ZM100.332 68.7218C102.529 69.272 104.419 68.9849 105.843 67.685L104.9 66.6509C103.923 67.5418 102.566 67.838 100.672 67.3637L100.332 68.7218ZM105.84 67.6881C107.209 66.4554 108.208 64.3484 108.918 61.5123L107.56 61.1723C106.873 63.9191 105.96 65.6959 104.903 66.6477L105.84 67.6881ZM127.865 61.7653L127.251 61.4288L127.249 61.4321L127.865 61.7653ZM120.523 75.3299L120.353 76.0089L120.88 76.1408L121.138 75.6631L120.523 75.3299ZM116.582 74.3433L115.882 74.3627L115.897 74.8934L116.412 75.0224L116.582 74.3433ZM115.973 52.406L116.143 51.7269L115.248 51.5028L115.273 52.4254L115.973 52.406ZM119.345 53.2502L120.045 53.2515L120.046 52.7041L119.515 52.5712L119.345 53.2502ZM119.317 68.3234L118.617 68.3221L118.617 68.3232L119.317 68.3234ZM119.293 69.9482L118.593 69.9311L119.293 69.9482ZM119.202 71.9993L118.503 71.9558L119.825 72.3196L119.202 71.9993ZM120.065 70.3227L119.449 69.9899L119.442 70.0024L120.065 70.3227ZM120.961 68.6745L120.347 68.3367L120.346 68.3386L120.961 68.6745ZM128.231 55.4747L128.401 54.7956L127.878 54.6647L127.618 55.1369L128.231 55.4747ZM131.888 56.3901L132.588 56.3874L132.586 55.8432L132.058 55.711L131.888 56.3901ZM131.945 71.3638L131.245 71.3665L131.245 71.3671L131.945 71.3638ZM131.93 73.2728L131.23 73.2588L131.23 73.2726L131.93 73.2728ZM131.915 75.1819L131.215 75.1711L132.539 75.4992L131.915 75.1819ZM132.806 73.3915L132.182 73.0758L132.177 73.0847L132.806 73.3915ZM133.664 71.7339L133.05 71.3988L133.047 71.4042L133.664 71.7339ZM140.812 58.624L140.982 57.945L140.457 57.8135L140.197 58.2889L140.812 58.624ZM144.147 59.4588L144.752 59.8092L145.217 59.0053L144.317 58.7797L144.147 59.4588ZM133.141 78.4887L132.971 79.1677L133.483 79.2959L133.747 78.8391L133.141 78.4887ZM129.181 77.4974L128.481 77.4952L128.48 78.0433L129.011 78.1764L129.181 77.4974ZM129.229 62.1068L128.529 62.0987L128.529 62.1047L129.229 62.1068ZM129.267 60.4252L128.569 60.3823L128.568 60.3918L128.568 60.4013L129.267 60.4252ZM129.348 58.7341L130.048 58.758L128.711 58.4454L129.348 58.7341ZM128.708 60.0839L128.078 59.7795L128.074 59.7888L128.708 60.0839ZM127.249 61.4321L119.907 74.9966L121.138 75.6631L128.48 62.0985L127.249 61.4321ZM120.693 74.6508L116.752 73.6643L116.412 75.0224L120.353 76.0089L120.693 74.6508ZM117.282 74.3239L116.673 52.3865L115.273 52.4254L115.882 74.3627L117.282 74.3239ZM115.803 53.085L119.175 53.9293L119.515 52.5712L116.143 51.7269L115.803 53.085ZM118.645 53.2489L118.617 68.3221L120.017 68.3247L120.045 53.2515L118.645 53.2489ZM118.617 68.3232C118.617 68.745 118.609 69.2804 118.593 69.9311L119.993 69.9653C120.009 69.3086 120.017 68.7609 120.017 68.3236L118.617 68.3232ZM118.593 69.9311C118.577 70.5752 118.547 71.2501 118.503 71.9558L119.901 72.0428C119.946 71.3211 119.976 70.6286 119.993 69.9653L118.593 69.9311ZM119.825 72.3196C119.86 72.2503 119.843 72.284 119.878 72.2148C119.914 72.1455 119.897 72.1792 119.932 72.11C119.968 72.0407 119.951 72.0744 119.986 72.0052C120.022 71.936 120.005 71.9696 120.04 71.9004C120.076 71.8312 120.059 71.8649 120.094 71.7956C120.095 71.7945 120.095 71.7934 120.096 71.7923C120.096 71.7913 120.097 71.7902 120.098 71.7891C120.098 71.788 120.099 71.7869 120.099 71.7858C120.1 71.7847 120.1 71.7836 120.101 71.7825C120.101 71.7814 120.102 71.7803 120.103 71.7792C120.103 71.7782 120.104 71.7771 120.104 71.776C120.105 71.7749 120.105 71.7738 120.106 71.7727C120.107 71.7716 120.107 71.7705 120.108 71.7694C120.108 71.7683 120.109 71.7672 120.109 71.7661C120.11 71.7651 120.11 71.764 120.111 71.7629C120.112 71.7618 120.112 71.7607 120.113 71.7596C120.113 71.7585 120.114 71.7574 120.114 71.7563C120.115 71.7552 120.116 71.7541 120.116 71.753C120.117 71.752 120.117 71.7509 120.118 71.7498C120.118 71.7487 120.119 71.7476 120.119 71.7465C120.12 71.7454 120.121 71.7443 120.121 71.7432C120.122 71.7421 120.122 71.741 120.123 71.7399C120.123 71.7389 120.124 71.7378 120.124 71.7367C120.125 71.7356 120.126 71.7345 120.126 71.7334C120.127 71.7323 120.127 71.7312 120.128 71.7301C120.128 71.729 120.129 71.7279 120.13 71.7268C120.13 71.7258 120.131 71.7247 120.131 71.7236C120.132 71.7225 120.132 71.7214 120.133 71.7203C120.133 71.7192 120.134 71.7181 120.135 71.717C120.135 71.7159 120.136 71.7148 120.136 71.7138C120.137 71.7127 120.137 71.7116 120.138 71.7105C120.139 71.7094 120.139 71.7083 120.14 71.7072C120.14 71.7061 120.141 71.705 120.141 71.7039C120.142 71.7028 120.142 71.7017 120.143 71.7007C120.144 71.6996 120.144 71.6985 120.145 71.6974C120.145 71.6963 120.146 71.6952 120.146 71.6941C120.147 71.693 120.148 71.6919 120.148 71.6908C120.183 71.6235 120.167 71.6534 120.202 71.586C120.206 71.5791 120.225 71.5405 120.229 71.5336C120.233 71.5267 120.252 71.4882 120.256 71.4812C120.304 71.3876 120.423 71.1557 120.472 71.0621C120.476 71.0528 120.494 71.019 120.499 71.0097C120.503 71.0004 120.521 70.9666 120.525 70.9573C120.53 70.948 120.548 70.9142 120.552 70.9049C120.557 70.8956 120.575 70.8618 120.579 70.8525C120.584 70.8432 120.602 70.8094 120.606 70.8001C120.611 70.7908 120.629 70.757 120.633 70.7477C120.638 70.7384 120.655 70.7046 120.66 70.6953C120.665 70.686 120.682 70.6522 120.687 70.6429L119.442 70.0024C119.392 70.0999 119.277 70.324 119.227 70.4216C119.179 70.5143 119.059 70.748 119.011 70.8407C119.008 70.8463 118.96 70.9399 118.957 70.9455C118.955 70.9496 118.932 70.9938 118.93 70.9979C118.929 70.9998 118.918 71.0222 118.917 71.0241C118.916 71.0252 118.916 71.0263 118.915 71.0274C118.914 71.0285 118.914 71.0296 118.913 71.0307C118.913 71.0318 118.912 71.0328 118.912 71.0339C118.911 71.035 118.91 71.0361 118.91 71.0372C118.909 71.0383 118.909 71.0394 118.908 71.0405C118.908 71.0416 118.907 71.0427 118.907 71.0438C118.906 71.0449 118.905 71.0459 118.905 71.047C118.904 71.0481 118.904 71.0492 118.903 71.0503C118.903 71.0514 118.902 71.0525 118.902 71.0536C118.901 71.0547 118.9 71.0558 118.9 71.0569C118.899 71.0579 118.899 71.059 118.898 71.0601C118.898 71.0612 118.897 71.0623 118.896 71.0634C118.896 71.0645 118.895 71.0656 118.895 71.0667C118.894 71.0678 118.894 71.0689 118.893 71.07C118.893 71.071 118.892 71.0721 118.891 71.0732C118.891 71.0743 118.89 71.0754 118.89 71.0765C118.889 71.0776 118.889 71.0787 118.888 71.0798C118.887 71.0809 118.887 71.082 118.886 71.0831C118.886 71.0841 118.885 71.0852 118.885 71.0863C118.884 71.0874 118.884 71.0885 118.883 71.0896C118.882 71.0907 118.882 71.0918 118.881 71.0929C118.881 71.094 118.88 71.0951 118.88 71.0962C118.879 71.0972 118.878 71.0983 118.878 71.0994C118.877 71.1005 118.877 71.1016 118.876 71.1027C118.876 71.1037 118.863 71.1279 118.863 71.1289C118.859 71.137 118.853 71.147 118.849 71.1551C118.842 71.1693 118.803 71.2457 118.795 71.2599C118.788 71.2741 118.749 71.3505 118.741 71.3647C118.734 71.3789 118.695 71.4553 118.688 71.4695C118.68 71.4837 118.641 71.5601 118.634 71.5743C118.626 71.5885 118.587 71.6648 118.58 71.679L119.825 72.3196ZM120.681 70.6554C120.98 70.1007 121.278 69.5524 121.575 69.0104L120.346 68.3386C120.049 68.8828 119.75 69.4332 119.449 69.99L120.681 70.6554ZM121.574 69.0122L128.845 55.8124L127.618 55.1369L120.347 68.3367L121.574 69.0122ZM128.061 56.1537L131.718 57.0691L132.058 55.711L128.401 54.7956L128.061 56.1537ZM131.188 56.3927L131.245 71.3665L132.645 71.3612L132.588 56.3874L131.188 56.3927ZM131.245 71.3671C131.248 71.9929 131.243 72.6234 131.23 73.2588L132.63 73.2868C132.643 72.6401 132.648 71.998 132.645 71.3605L131.245 71.3671ZM131.23 73.2726C131.23 73.9134 131.225 74.5462 131.215 75.1711L132.615 75.1926C132.625 74.5606 132.63 73.9207 132.63 73.2731L131.23 73.2726ZM132.539 75.4992C132.832 74.924 133.131 74.3237 133.436 73.6984L132.177 73.0847C131.875 73.7035 131.58 74.2967 131.291 74.8645L132.539 75.4992ZM133.431 73.7073C133.749 73.0791 134.032 72.5313 134.282 72.0635L133.047 71.4042C132.791 71.8836 132.503 72.441 132.182 73.0758L133.431 73.7073ZM134.279 72.0689L141.427 58.9591L140.197 58.2889L133.05 71.3988L134.279 72.0689ZM140.642 59.3031L143.977 60.1378L144.317 58.7797L140.982 57.945L140.642 59.3031ZM143.541 59.1083L132.535 78.1382L133.747 78.8391L144.752 59.8092L143.541 59.1083ZM133.311 77.8096L129.351 76.8184L129.011 78.1764L132.971 79.1677L133.311 77.8096ZM129.881 77.4996L129.929 62.109L128.529 62.1047L128.481 77.4952L129.881 77.4996ZM129.929 62.1149C129.935 61.558 129.948 61.0028 129.967 60.4491L128.568 60.4013C128.548 60.9655 128.535 61.5314 128.529 62.0987L129.929 62.1149ZM129.966 60.4681C130.001 59.8935 130.029 59.3234 130.048 58.758L128.649 58.7102C128.63 59.2627 128.603 59.82 128.569 60.3823L129.966 60.4681ZM128.711 58.4454C128.594 58.7019 128.385 59.1448 128.078 59.7795L129.339 60.3884C129.645 59.7537 129.862 59.2968 129.986 59.0228L128.711 58.4454ZM128.074 59.7888C127.788 60.4029 127.514 60.9492 127.251 61.4288L128.478 62.1018C128.759 61.59 129.047 61.0154 129.343 60.3791L128.074 59.7888ZM145.04 81.4673L144.87 82.1463L145.549 82.3163L145.719 81.6373L145.04 81.4673ZM141.629 80.6135L140.95 80.4436L140.78 81.1226L141.459 81.2926L141.629 80.6135ZM146.349 61.6006L145.667 61.4423L145.664 61.4545L146.349 61.6006ZM146.647 60.0849L146.817 59.4058L146.035 59.2098L145.951 60.0126L146.647 60.0849ZM149.868 60.8912L150.562 60.9891L150.65 60.3652L150.038 60.2121L149.868 60.8912ZM149.698 61.8148L149.013 61.6683L149.011 61.6801L149.008 61.692L149.698 61.8148ZM149.143 64.4342L148.459 64.2822L148.311 64.9477L148.973 65.1133L149.143 64.4342ZM149.199 64.4485L149.029 65.1275L149.43 65.2277L149.711 64.9261L149.199 64.4485ZM152.658 62.1331L152.846 62.8076L152.848 62.8068L152.658 62.1331ZM161.222 65.1628L160.603 65.4911L160.605 65.4948L161.222 65.1628ZM157.999 84.7115L157.829 85.3905L158.508 85.5605L158.678 84.8815L157.999 84.7115ZM154.57 83.853L153.891 83.683L153.721 84.3621L154.4 84.5321L154.57 83.853ZM147.334 69.4178L144.361 81.2973L145.719 81.6373L148.693 69.7578L147.334 69.4178ZM145.21 80.7882L141.799 79.9345L141.459 81.2926L144.87 82.1463L145.21 80.7882ZM142.308 80.7835L146.345 64.66L144.986 64.32L140.95 80.4436L142.308 80.7835ZM146.345 64.66C146.646 63.4565 146.876 62.4845 147.033 61.7467L145.664 61.4545C145.511 62.1693 145.286 63.1235 144.986 64.32L146.345 64.66ZM147.03 61.7589C147.2 61.0273 147.31 60.4815 147.344 60.1571L145.951 60.0126C145.928 60.2377 145.838 60.7024 145.667 61.4424L147.03 61.7589ZM146.477 60.7639L149.698 61.5702L150.038 60.2121L146.817 59.4058L146.477 60.7639ZM149.175 60.7932C149.144 61.0172 149.09 61.3076 149.013 61.6683L150.382 61.9613C150.463 61.5831 150.524 61.2577 150.562 60.9891L149.175 60.7932ZM149.008 61.692C148.944 62.0537 148.864 62.4533 148.767 62.8911L150.134 63.1922C150.234 62.7395 150.318 62.3212 150.387 61.9377L149.008 61.692ZM148.767 62.8911C148.669 63.3358 148.567 63.7995 148.459 64.2822L149.826 64.5863C149.933 64.1027 150.036 63.638 150.134 63.1922L148.767 62.8911ZM148.973 65.1133L149.029 65.1275L149.369 63.7694L149.313 63.7552L148.973 65.1133ZM149.711 64.9261C150.792 63.7677 151.839 63.0874 152.846 62.8076L152.471 61.4587C151.14 61.8288 149.881 62.6919 148.688 63.9709L149.711 64.9261ZM152.848 62.8068C153.887 62.5137 155.115 62.5234 156.557 62.8845L156.897 61.5264C155.283 61.1223 153.798 61.0839 152.468 61.4595L152.848 62.8068ZM156.557 62.8845C158.702 63.4214 159.984 64.3246 160.603 65.4911L161.84 64.8345C160.963 63.1836 159.249 62.1152 156.897 61.5264L156.557 62.8845ZM160.605 65.4948C161.245 66.6824 161.351 68.4382 160.74 70.881L162.098 71.221C162.745 68.6367 162.719 66.467 161.838 64.8308L160.605 65.4948ZM160.74 70.881L157.32 84.5415L158.678 84.8815L162.098 71.221L160.74 70.881ZM158.169 84.0324L154.74 83.174L154.4 84.5321L157.829 85.3905L158.169 84.0324ZM155.249 84.023L158.503 71.0256L157.144 70.6856L153.891 83.683L155.249 84.023ZM158.503 71.0256C159 69.04 159.082 67.3887 158.534 66.227L157.268 66.825C157.596 67.5205 157.628 68.7556 157.144 70.6856L158.503 71.0256ZM158.534 66.227C157.965 65.0232 156.725 64.2819 155.082 63.8707L154.742 65.2288C156.207 65.5954 156.959 66.1717 157.268 66.825L158.534 66.227ZM155.082 63.8707C153.266 63.4161 151.613 63.6732 150.196 64.6961L151.016 65.8312C152.056 65.0801 153.274 64.8613 154.742 65.2288L155.082 63.8707ZM150.196 64.6961C148.793 65.7095 147.86 67.3193 147.334 69.4178L148.693 69.7578C149.166 67.8648 149.962 66.5919 151.016 65.8312L150.196 64.6961ZM173.583 58.7338L174.262 58.9038L174.432 58.2248L173.753 58.0548L173.583 58.7338ZM172.767 61.9926L172.597 62.6717L173.276 62.8417L173.446 62.1626L172.767 61.9926ZM169.356 61.1389L168.677 60.9689L168.507 61.648L169.186 61.8179L169.356 61.1389ZM170.172 57.8801L170.342 57.201L169.663 57.031L169.493 57.7101L170.172 57.8801ZM171.676 66.3504L172.355 66.5203L172.525 65.8413L171.846 65.6713L171.676 66.3504ZM166.544 86.8506L166.374 87.5296L167.053 87.6996L167.223 87.0206L166.544 86.8506ZM163.134 85.9968L162.455 85.8269L162.285 86.5059L162.964 86.6759L163.134 85.9968ZM168.266 65.4966L168.436 64.8176L167.756 64.6476L167.586 65.3266L168.266 65.4966ZM172.904 58.5638L172.088 61.8226L173.446 62.1626L174.262 58.9038L172.904 58.5638ZM172.937 61.3136L169.526 60.4598L169.186 61.8179L172.597 62.6717L172.937 61.3136ZM170.035 61.3089L170.851 58.0501L169.493 57.7101L168.677 60.9689L170.035 61.3089ZM170.002 58.5591L173.413 59.4129L173.753 58.0548L170.342 57.201L170.002 58.5591ZM170.997 66.1804L165.865 86.6806L167.223 87.0206L172.355 66.5203L170.997 66.1804ZM166.714 86.1715L163.304 85.3178L162.964 86.6759L166.374 87.5296L166.714 86.1715ZM163.813 86.1668L168.945 65.6666L167.586 65.3266L162.455 85.8269L163.813 86.1668ZM168.096 66.1757L171.506 67.0294L171.846 65.6713L168.436 64.8176L168.096 66.1757ZM175.278 89.0371L175.108 89.7161L175.787 89.8861L175.957 89.2071L175.278 89.0371ZM171.868 88.1834L171.189 88.0134L171.019 88.6924L171.698 88.8624L171.868 88.1834ZM176.587 69.1704L175.905 69.0121L175.903 69.0244L176.587 69.1704ZM176.886 67.6547L177.056 66.9756L176.273 66.7796L176.19 67.5824L176.886 67.6547ZM180.107 68.461L180.8 68.559L180.888 67.935L180.277 67.7819L180.107 68.461ZM179.936 69.3847L179.252 69.2382L179.249 69.2499L179.247 69.2618L179.936 69.3847ZM179.381 72.0041L178.698 71.852L178.55 72.5175L179.211 72.6831L179.381 72.0041ZM179.438 72.0183L179.268 72.6973L179.668 72.7975L179.95 72.4959L179.438 72.0183ZM182.897 69.703L183.084 70.3774L183.087 70.3766L182.897 69.703ZM191.46 72.7326L190.842 73.0609L190.844 73.0646L191.46 72.7326ZM188.238 92.2813L188.068 92.9604L188.747 93.1303L188.917 92.4513L188.238 92.2813ZM184.809 91.4228L184.129 91.2528L183.96 91.9319L184.639 92.1019L184.809 91.4228ZM177.573 76.9876L174.599 88.8671L175.957 89.2071L178.931 77.3276L177.573 76.9876ZM175.448 88.3581L172.038 87.5043L171.698 88.8624L175.108 89.7161L175.448 88.3581ZM172.547 88.3533L176.583 72.2298L175.225 71.8898L171.189 88.0134L172.547 88.3533ZM176.583 72.2298C176.885 71.0264 177.115 70.0543 177.272 69.3165L175.903 69.0244C175.75 69.7391 175.525 70.6933 175.225 71.8898L176.583 72.2298ZM177.269 69.3287C177.439 68.5971 177.549 68.0513 177.583 67.7269L176.19 67.5824C176.167 67.8075 176.077 68.2722 175.905 69.0122L177.269 69.3287ZM176.716 68.3337L179.937 69.14L180.277 67.7819L177.056 66.9756L176.716 68.3337ZM179.414 68.363C179.382 68.587 179.329 68.8775 179.252 69.2382L180.621 69.5311C180.702 69.1529 180.762 68.8276 180.8 68.559L179.414 68.363ZM179.247 69.2618C179.183 69.6235 179.102 70.0231 179.006 70.4609L180.373 70.762C180.473 70.3093 180.557 69.891 180.625 69.5075L179.247 69.2618ZM179.006 70.4609C178.908 70.9056 178.805 71.3693 178.698 71.852L180.065 72.1561C180.172 71.6725 180.275 71.2078 180.373 70.762L179.006 70.4609ZM179.211 72.6831L179.268 72.6973L179.608 71.3392L179.551 71.325L179.211 72.6831ZM179.95 72.4959C181.031 71.3375 182.078 70.6572 183.084 70.3774L182.709 69.0285C181.379 69.3986 180.12 70.2617 178.926 71.5407L179.95 72.4959ZM183.087 70.3766C184.125 70.0835 185.354 70.0933 186.796 70.4543L187.136 69.0963C185.522 68.6921 184.037 68.6537 182.707 69.0293L183.087 70.3766ZM186.796 70.4543C188.941 70.9912 190.223 71.8944 190.842 73.0609L192.079 72.4043C191.202 70.7534 189.488 69.685 187.136 69.0963L186.796 70.4543ZM190.844 73.0646C191.484 74.2522 191.59 76.008 190.979 78.4508L192.337 78.7908C192.984 76.2065 192.958 74.0368 192.077 72.4006L190.844 73.0646ZM190.979 78.4508L187.559 92.1113L188.917 92.4513L192.337 78.7908L190.979 78.4508ZM188.408 91.6023L184.979 90.7438L184.639 92.1019L188.068 92.9604L188.408 91.6023ZM185.488 91.5928L188.741 78.5954L187.383 78.2555L184.129 91.2528L185.488 91.5928ZM188.741 78.5954C189.238 76.6098 189.321 74.9585 188.772 73.7968L187.506 74.3948C187.835 75.0904 187.866 76.3255 187.383 78.2555L188.741 78.5954ZM188.772 73.7968C188.204 72.593 186.964 71.8517 185.321 71.4405L184.981 72.7986C186.445 73.1652 187.198 73.7415 187.506 74.3948L188.772 73.7968ZM185.321 71.4405C183.505 70.9859 181.852 71.2431 180.435 72.2659L181.254 73.4011C182.295 72.6499 183.513 72.4311 184.981 72.7986L185.321 71.4405ZM180.435 72.2659C179.031 73.2793 178.099 74.8891 177.573 76.9876L178.931 77.3276C179.405 75.4347 180.201 74.1617 181.254 73.4011L180.435 72.2659ZM194.133 100.905L194.651 100.434L194.648 100.43L194.133 100.905ZM192.509 96.5318L192.581 95.8354L191.821 95.7572L191.809 96.5212L192.509 96.5318ZM196.062 96.8976L196.762 96.9045L196.768 96.2667L196.134 96.2013L196.062 96.8976ZM197.013 99.4512L197.53 98.9785L197.528 98.9766L197.013 99.4512ZM204.071 100.453L203.667 99.8811L203.663 99.8841L204.071 100.453ZM207.304 93.0073L207.983 93.1773L208.153 92.4983L207.474 92.3283L207.304 93.0073ZM207.266 92.9979L207.436 92.3188L207.013 92.2128L206.731 92.5462L207.266 92.9979ZM203.869 95.3085L204.065 95.9805L204.07 95.9789L203.869 95.3085ZM194.756 91.4165L194.103 91.6686L194.105 91.6719L194.756 91.4165ZM198.864 75.5724L198.418 75.0327L198.417 75.0332L198.864 75.5724ZM208.83 76.3761L208.324 76.8598L208.331 76.8667L208.83 76.3761ZM210.605 79.8205L209.919 79.9579L210.006 80.392L210.435 80.4995L210.605 79.8205ZM210.643 79.83L210.473 80.509L211.152 80.679L211.322 80L210.643 79.83ZM210.975 78.6648L211.645 78.8669L211.646 78.8661L210.975 78.6648ZM211.454 77.1538L210.791 76.9309L211.454 77.1538ZM211.748 76.3818L211.918 75.7027L211.498 75.5977L211.217 75.9261L211.748 76.3818ZM214.988 77.1928L215.644 77.4368L215.917 76.7037L215.158 76.5138L214.988 77.1928ZM208.852 80.3079L208.199 80.5588L208.202 80.5653L208.852 80.3079ZM205.936 91.96L205.485 91.4243L205.484 91.4251L205.936 91.96ZM199.314 102.889C197.16 102.35 195.632 101.514 194.651 100.434L193.615 101.375C194.843 102.727 196.656 103.667 198.974 104.247L199.314 102.889ZM194.648 100.43C193.667 99.3654 193.186 98.0839 193.209 96.5423L191.809 96.5212C191.781 98.4029 192.382 100.037 193.618 101.379L194.648 100.43ZM192.438 97.2281L195.99 97.5939L196.134 96.2013L192.581 95.8354L192.438 97.2281ZM195.362 96.8908C195.351 98.062 195.727 99.0886 196.499 99.9258L197.528 98.9766C197.012 98.4175 196.754 97.7417 196.762 96.9045L195.362 96.8908ZM196.497 99.9238C197.27 100.768 198.367 101.337 199.718 101.675L200.058 100.317C198.883 100.023 198.063 99.5617 197.53 98.9786L196.497 99.9238ZM199.718 101.675C201.547 102.133 203.17 101.961 204.479 101.022L203.663 99.8841C202.781 100.517 201.614 100.707 200.058 100.317L199.718 101.675ZM204.475 101.025C205.775 100.107 206.641 98.5402 207.158 96.474L205.8 96.1341C205.324 98.034 204.585 99.2335 203.667 99.8811L204.475 101.025ZM207.158 96.474L207.983 93.1773L206.625 92.8374L205.8 96.1341L207.158 96.474ZM207.474 92.3283L207.436 92.3188L207.096 93.6769L207.134 93.6864L207.474 92.3283ZM206.731 92.5462C205.835 93.6076 204.814 94.2936 203.668 94.638L204.07 95.9789C205.507 95.5473 206.751 94.6929 207.801 93.4495L206.731 92.5462ZM203.673 94.6364C202.521 94.972 201.253 94.9789 199.852 94.6281L199.512 95.9862C201.116 96.3879 202.64 96.3957 204.065 95.9805L203.673 94.6364ZM199.852 94.6281C197.501 94.0397 196.076 92.8659 195.408 91.1611L194.105 91.6719C194.976 93.8961 196.835 95.3161 199.512 95.9862L199.852 94.6281ZM195.409 91.1643C194.73 89.4057 194.759 86.8103 195.642 83.2825L194.284 82.9426C193.377 86.564 193.268 89.5045 194.103 91.6686L195.409 91.1643ZM195.642 83.2825C196.536 79.7109 197.788 77.3719 199.31 76.1116L198.417 75.0332C196.553 76.5762 195.204 79.2639 194.284 82.9426L195.642 83.2825ZM199.309 76.1122C200.811 74.8724 202.718 74.5005 205.141 75.1071L205.481 73.7491C202.726 73.0593 200.334 73.4503 198.418 75.0327L199.309 76.1122ZM205.141 75.1071C206.486 75.4438 207.535 76.0346 208.324 76.8597L209.336 75.8925C208.338 74.8476 207.041 74.1396 205.481 73.7491L205.141 75.1071ZM208.331 76.8667C209.137 77.6876 209.669 78.7098 209.919 79.9579L211.292 79.6831C210.993 78.1899 210.341 76.9158 209.329 75.8856L208.331 76.8667ZM210.435 80.4995L210.473 80.509L210.813 79.1509L210.775 79.1415L210.435 80.4995ZM211.322 80C211.381 79.7644 211.488 79.3893 211.645 78.8669L210.305 78.4627C210.146 78.9886 210.032 79.3903 209.964 79.66L211.322 80ZM211.646 78.8661C211.805 78.3356 211.962 77.8392 212.118 77.3767L210.791 76.9309C210.63 77.4094 210.468 77.9203 210.305 78.4634L211.646 78.8661ZM212.118 77.3767C212.196 77.1445 212.256 76.9728 212.3 76.857C212.323 76.7984 212.338 76.762 212.346 76.7425C212.351 76.7326 212.351 76.734 212.346 76.7423C212.344 76.7468 212.338 76.7569 212.329 76.7704C212.322 76.7823 212.305 76.8075 212.279 76.8375L211.217 75.9261C211.132 76.0252 211.082 76.142 211.07 76.1673C211.045 76.2232 211.019 76.2888 210.992 76.3589C210.938 76.5005 210.871 76.6926 210.791 76.9309L212.118 77.3767ZM211.578 77.0608L214.818 77.8719L215.158 76.5138L211.918 75.7027L211.578 77.0608ZM214.332 76.9489C214.069 77.6548 213.668 79.0986 213.133 81.2384L214.491 81.5784C215.03 79.4236 215.413 78.0571 215.644 77.4368L214.332 76.9489ZM213.133 81.2384L209.21 96.9073L210.568 97.2472L214.491 81.5784L213.133 81.2384ZM209.21 96.9073C208.515 99.684 207.337 101.469 205.764 102.422L206.489 103.62C208.491 102.408 209.822 100.23 210.568 97.2472L209.21 96.9073ZM205.764 102.422C204.192 103.374 202.076 103.581 199.314 102.889L198.974 104.247C201.946 104.991 204.485 104.833 206.489 103.62L205.764 102.422ZM209.596 86.7355C210.24 84.1624 210.241 81.916 209.503 80.0504L208.202 80.5653C208.795 82.0666 208.839 83.9919 208.238 86.3955L209.596 86.7355ZM209.506 80.0569C208.785 78.1794 207.507 76.9542 205.679 76.4966L205.339 77.8547C206.669 78.1876 207.62 79.0505 208.199 80.5588L209.506 80.0569ZM205.679 76.4966C203.749 76.0133 202.06 76.3508 200.743 77.6112L201.71 78.6227C202.617 77.7553 203.783 77.4653 205.339 77.8547L205.679 76.4966ZM200.743 77.6112C199.482 78.8169 198.533 80.9261 197.817 83.7869L199.175 84.1268C199.876 81.3288 200.747 79.5448 201.71 78.6227L200.743 77.6112ZM197.817 83.7869C197.109 86.6169 196.934 88.8839 197.433 90.4883L198.769 90.073C198.391 88.8538 198.48 86.905 199.175 84.1268L197.817 83.7869ZM197.433 90.4883C197.963 92.1956 199.326 93.2618 201.298 93.7556L201.638 92.3975C199.998 91.987 199.116 91.1893 198.769 90.073L197.433 90.4883ZM201.298 93.7556C203.15 94.2193 204.867 93.7775 206.387 92.495L205.484 91.4251C204.281 92.4408 203.02 92.7433 201.638 92.3975L201.298 93.7556ZM206.386 92.4957C207.913 91.2113 208.964 89.2611 209.596 86.7355L208.238 86.3955C207.649 88.7455 206.713 90.3916 205.485 91.4244L206.386 92.4957Z" fill="white" mask="url(#path-5-outside-2_18_102)"/>
<mask id="path-7-outside-3_18_102" maskUnits="userSpaceOnUse" x="46.2311" y="88.4377" width="29.3799" height="32.2405" fill="black">
<rect fill="white" x="46.2311" y="88.4377" width="29.3799" height="32.2405"/>
<path d="M50.8633 90.5162L51.0159 93.8721L47.5039 94.0318L47.3513 90.6759L50.8633 90.5162ZM51.2201 98.3596L52.1805 119.471L48.6685 119.63L47.7081 98.5194L51.2201 98.3596ZM60.6186 106.828L61.1751 119.061L57.6631 119.221L56.9077 102.617C56.8515 101.382 56.7935 100.394 56.7338 99.6533C56.6865 98.8995 56.6371 98.3869 56.5856 98.1155L59.9025 97.9646C59.9398 98.2106 59.9735 98.5219 60.0037 98.8985C60.0468 99.2745 60.0853 99.6899 60.119 100.145C60.1527 100.599 60.1873 101.073 60.2228 101.567L60.2813 101.564C61.0215 100.071 61.9048 99.001 62.9312 98.3547C63.97 97.6948 65.2763 97.3291 66.8502 97.2575C69.1655 97.1522 70.8834 97.6671 72.0039 98.8022C73.1373 99.9368 73.7629 101.798 73.8807 104.387L74.5207 118.454L70.9892 118.615L70.3803 105.23C70.2885 103.214 69.8994 101.824 69.213 101.06C68.5265 100.296 67.3833 99.9509 65.7834 100.024C64.0925 100.101 62.7855 100.74 61.8626 101.942C60.9398 103.144 60.5251 104.773 60.6186 106.828Z"/>
</mask>
<g filter="url(#filter2_i_18_102)">
<path d="M50.8633 90.5162L51.0159 93.8721L47.5039 94.0318L47.3513 90.6759L50.8633 90.5162ZM51.2201 98.3596L52.1805 119.471L48.6685 119.63L47.7081 98.5194L51.2201 98.3596ZM60.6186 106.828L61.1751 119.061L57.6631 119.221L56.9077 102.617C56.8515 101.382 56.7935 100.394 56.7338 99.6533C56.6865 98.8995 56.6371 98.3869 56.5856 98.1155L59.9025 97.9646C59.9398 98.2106 59.9735 98.5219 60.0037 98.8985C60.0468 99.2745 60.0853 99.6899 60.119 100.145C60.1527 100.599 60.1873 101.073 60.2228 101.567L60.2813 101.564C61.0215 100.071 61.9048 99.001 62.9312 98.3547C63.97 97.6948 65.2763 97.3291 66.8502 97.2575C69.1655 97.1522 70.8834 97.6671 72.0039 98.8022C73.1373 99.9368 73.7629 101.798 73.8807 104.387L74.5207 118.454L70.9892 118.615L70.3803 105.23C70.2885 103.214 69.8994 101.824 69.213 101.06C68.5265 100.296 67.3833 99.9509 65.7834 100.024C64.0925 100.101 62.7855 100.74 61.8626 101.942C60.9398 103.144 60.5251 104.773 60.6186 106.828Z" fill="white"/>
</g>
<path d="M50.8633 90.5162L51.5625 90.4843L51.5307 89.7851L50.8314 89.8169L50.8633 90.5162ZM51.0159 93.8721L51.0477 94.5713L51.747 94.5395L51.7152 93.8403L51.0159 93.8721ZM47.5039 94.0318L46.8047 94.0637L46.8365 94.7629L47.5358 94.7311L47.5039 94.0318ZM47.3513 90.6759L47.3195 89.9767L46.6202 90.0085L46.652 90.7077L47.3513 90.6759ZM51.2201 98.3596L51.9194 98.3278L51.8876 97.6285L51.1883 97.6603L51.2201 98.3596ZM52.1805 119.471L52.2123 120.17L52.9116 120.138L52.8798 119.439L52.1805 119.471ZM48.6685 119.63L47.9692 119.662L48.001 120.361L48.7003 120.33L48.6685 119.63ZM47.7081 98.5194L47.6763 97.8201L46.977 97.8519L47.0088 98.5512L47.7081 98.5194ZM50.164 90.548L50.3167 93.9039L51.7152 93.8403L51.5625 90.4843L50.164 90.548ZM50.9841 93.1728L47.4721 93.3326L47.5358 94.7311L51.0477 94.5713L50.9841 93.1728ZM48.2032 94L48.0505 90.6441L46.652 90.7077L46.8047 94.0637L48.2032 94ZM47.3831 91.3752L50.8951 91.2154L50.8314 89.8169L47.3195 89.9767L47.3831 91.3752ZM50.5208 98.3914L51.4812 119.502L52.8798 119.439L51.9194 98.3278L50.5208 98.3914ZM52.1487 118.771L48.6367 118.931L48.7003 120.33L52.2123 120.17L52.1487 118.771ZM49.3678 119.599L48.4074 98.4876L47.0088 98.5512L47.9692 119.662L49.3678 119.599ZM47.7399 99.2187L51.2519 99.0589L51.1883 97.6603L47.6763 97.8201L47.7399 99.2187ZM61.1751 119.061L61.2069 119.761L61.9062 119.729L61.8744 119.03L61.1751 119.061ZM57.6631 119.221L56.9638 119.253L56.9957 119.952L57.6949 119.92L57.6631 119.221ZM56.7338 99.6533L56.0351 99.6972L56.0361 99.7097L56.7338 99.6533ZM56.5856 98.1155L56.5538 97.4162L55.7475 97.4529L55.8979 98.2459L56.5856 98.1155ZM59.9025 97.9646L60.5946 97.8598L60.5002 97.2367L59.8707 97.2653L59.9025 97.9646ZM60.0037 98.8985L59.3059 98.9544L59.3068 98.9664L59.3082 98.9783L60.0037 98.8985ZM60.2228 101.567L59.5246 101.617L59.5735 102.297L60.2546 102.266L60.2228 101.567ZM60.2813 101.564L60.3132 102.264L60.7253 102.245L60.9085 101.875L60.2813 101.564ZM62.9312 98.3547L63.3042 98.9471L63.3065 98.9456L62.9312 98.3547ZM72.0039 98.8022L71.5057 99.294L71.5087 99.297L72.0039 98.8022ZM74.5207 118.454L74.5525 119.154L75.2518 119.122L75.22 118.422L74.5207 118.454ZM70.9892 118.615L70.2899 118.647L70.3217 119.346L71.021 119.314L70.9892 118.615ZM59.9193 106.86L60.4758 119.093L61.8744 119.03L61.3178 106.796L59.9193 106.86ZM61.1433 118.362L57.6313 118.522L57.6949 119.92L61.2069 119.761L61.1433 118.362ZM58.3624 119.189L57.607 102.585L56.2085 102.649L56.9638 119.253L58.3624 119.189ZM57.607 102.585C57.5506 101.346 57.4922 100.349 57.4315 99.597L56.0361 99.7097C56.0949 100.438 56.1524 101.417 56.2085 102.649L57.607 102.585ZM57.4324 99.6095C57.3854 98.8599 57.3341 98.3055 57.2734 97.9851L55.8979 98.2459C55.94 98.4683 55.9876 98.9391 56.0352 99.6972L57.4324 99.6095ZM56.6174 98.8148L59.9343 98.6639L59.8707 97.2653L56.5538 97.4162L56.6174 98.8148ZM59.2104 98.0695C59.2443 98.2932 59.2764 98.5867 59.3059 98.9544L60.7014 98.8426C60.6705 98.457 60.6352 98.128 60.5946 97.8598L59.2104 98.0695ZM59.3082 98.9783C59.3501 99.3434 59.3878 99.7492 59.4209 100.196L60.8171 100.093C60.7828 99.6305 60.7435 99.2057 60.6991 98.8186L59.3082 98.9783ZM59.4209 100.196C59.4546 100.65 59.4892 101.124 59.5246 101.617L60.921 101.517C60.8855 101.023 60.8508 100.548 60.8171 100.093L59.4209 100.196ZM60.2546 102.266L60.3132 102.264L60.2495 100.865L60.191 100.868L60.2546 102.266ZM60.9085 101.875C61.6121 100.456 62.4203 99.5036 63.3042 98.9471L62.5582 97.7624C61.3893 98.4984 60.431 99.6861 59.6541 101.254L60.9085 101.875ZM63.3065 98.9456C64.2172 98.3671 65.3966 98.0244 66.882 97.9568L66.8184 96.5582C65.156 96.6339 63.7228 97.0226 62.5558 97.7639L63.3065 98.9456ZM66.882 97.9568C69.0906 97.8563 70.5779 98.354 71.5057 99.294L72.5021 98.3105C71.1889 96.9801 69.2405 96.448 66.8184 96.5582L66.882 97.9568ZM71.5087 99.297C72.462 100.251 73.067 101.903 73.1814 104.419L74.58 104.355C74.4589 101.694 73.8126 99.6223 72.4991 98.3075L71.5087 99.297ZM73.1814 104.419L73.8214 118.486L75.22 118.422L74.58 104.355L73.1814 104.419ZM74.4889 117.755L70.9574 117.916L71.021 119.314L74.5525 119.154L74.4889 117.755ZM71.6885 118.583L71.0795 105.199L69.681 105.262L70.2899 118.647L71.6885 118.583ZM71.0795 105.199C70.9865 103.154 70.5924 101.548 69.7336 100.592L68.6923 101.528C69.2065 102.1 69.5906 103.275 69.681 105.262L71.0795 105.199ZM69.7336 100.592C68.8437 99.6021 67.4433 99.2475 65.7516 99.3244L65.8152 100.723C67.3234 100.654 68.2093 100.991 68.6923 101.528L69.7336 100.592ZM65.7516 99.3244C63.8816 99.4095 62.3717 100.13 61.3074 101.516L62.4179 102.368C63.1994 101.35 64.3033 100.792 65.8152 100.723L65.7516 99.3244ZM61.3074 101.516C60.2531 102.889 59.821 104.699 59.9193 106.86L61.3178 106.796C61.2292 104.847 61.6264 103.399 62.4179 102.368L61.3074 101.516Z" fill="white" mask="url(#path-7-outside-3_18_102)"/>
<defs>
<filter id="filter0_i_18_102" x="88.2589" y="90.8508" width="120.463" height="69.1224" filterUnits="userSpaceOnUse" color-interpolation-filters="sRGB">
<feFlood flood-opacity="0" result="BackgroundImageFix"/>
<feBlend mode="normal" in="SourceGraphic" in2="BackgroundImageFix" result="shape"/>
<feColorMatrix in="SourceAlpha" type="matrix" values="0 0 0 0 0 0 0 0 0 0 0 0 0 0 0 0 0 0 127 0" result="hardAlpha"/>
<feOffset dy="-8"/>
<feGaussianBlur stdDeviation="3"/>
<feComposite in2="hardAlpha" operator="arithmetic" k2="-1" k3="1"/>
<feColorMatrix type="matrix" values="0 0 0 0 0.890833 0 0 0 0 0.844511 0 0 0 0 0.813628 0 0 0 1 0"/>
<feBlend mode="normal" in2="shape" result="effect1_innerShadow_18_102"/>
</filter>
<filter id="filter1_i_18_102" x="49.5034" y="23.9391" width="167.391" height="81.8062" filterUnits="userSpaceOnUse" color-interpolation-filters="sRGB">
<feFlood flood-opacity="0" result="BackgroundImageFix"/>
<feBlend mode="normal" in="SourceGraphic" in2="BackgroundImageFix" result="shape"/>
<feColorMatrix in="SourceAlpha" type="matrix" values="0 0 0 0 0 0 0 0 0 0 0 0 0 0 0 0 0 0 127 0" result="hardAlpha"/>
<feOffset dy="-8"/>
<feGaussianBlur stdDeviation="3"/>
<feComposite in2="hardAlpha" operator="arithmetic" k2="-1" k3="1"/>
<feColorMatrix type="matrix" values="0 0 0 0 0.890833 0 0 0 0 0.844511 0 0 0 0 0.813628 0 0 0 1 0"/>
<feBlend mode="normal" in2="shape" result="effect1_innerShadow_18_102"/>
</filter>
<filter id="filter2_i_18_102" x="47.3513" y="83.4998" width="27.1694" height="36.1306" filterUnits="userSpaceOnUse" color-interpolation-filters="sRGB">
<feFlood flood-opacity="0" result="BackgroundImageFix"/>
<feBlend mode="normal" in="SourceGraphic" in2="BackgroundImageFix" result="shape"/>
<feColorMatrix in="SourceAlpha" type="matrix" values="0 0 0 0 0 0 0 0 0 0 0 0 0 0 0 0 0 0 127 0" result="hardAlpha"/>
<feOffset dy="-8"/>
<feGaussianBlur stdDeviation="3"/>
<feComposite in2="hardAlpha" operator="arithmetic" k2="-1" k3="1"/>
<feColorMatrix type="matrix" values="0 0 0 0 0.890833 0 0 0 0 0.844511 0 0 0 0 0.813628 0 0 0 1 0"/>
<feBlend mode="normal" in2="shape" result="effect1_innerShadow_18_102"/>
</filter>
<linearGradient id="paint0_linear_18_102" x1="131" y1="59" x2="131" y2="229" gradientUnits="userSpaceOnUse">
<stop stop-color="#00FFDD"/>
<stop offset="1" stop-color="#013570"/>
</linearGradient>
<linearGradient id="paint1_linear_18_102" x1="131.5" y1="3.05176e-05" x2="131.5" y2="234" gradientUnits="userSpaceOnUse">
<stop stop-color="#04FFFF"/>
<stop offset="0.333333" stop-color="#0099FF"/>
<stop offset="0.666667" stop-color="#001D9C" stop-opacity="0.93"/>
<stop offset="1" stop-color="#000676"/>
</linearGradient>
</defs>
</svg>
