<svg width="208" height="215" viewBox="0 0 208 215" fill="none" xmlns="http://www.w3.org/2000/svg">
<path opacity="0.8" d="M81.8135 147.136C75.1251 159.835 58.9458 164.929 49.1277 154.46C41.364 146.181 35.441 136.235 31.8984 125.262C25.6722 105.976 27.2977 85.0629 36.4244 67.0337C45.551 49.0044 61.4472 35.3044 80.6838 28.889C99.9203 22.4736 120.955 23.8572 139.251 32.7412C157.547 41.6251 171.636 57.2974 178.481 76.3772C185.325 95.4569 184.375 116.415 175.837 134.729C167.298 153.044 151.855 167.248 132.838 174.276C122.023 178.274 110.545 179.768 99.2405 178.787C84.9343 177.546 78.9335 161.671 84.7901 148.559L87.4278 142.654C91.8278 132.803 104.316 129.2 114.435 125.46C120.609 123.178 125.622 118.567 128.394 112.621C131.166 106.676 131.475 99.872 129.253 93.678C127.031 87.4841 122.457 82.3963 116.517 79.5122C110.578 76.6282 103.749 76.179 97.5044 78.2617C91.2595 80.3443 86.099 84.7919 83.1362 90.6448C80.1733 96.4977 79.6456 103.287 81.6669 109.548C84.9798 119.81 89.8647 131.85 84.8395 141.391L81.8135 147.136Z" fill="url(#paint0_linear_45_10)"/>
<circle cx="94.7523" cy="119.35" r="67" transform="rotate(-45 94.7523 119.35)" fill="black"/>
<defs>
<linearGradient id="paint0_linear_45_10" x1="137.139" y1="31.7545" x2="74.0401" y2="172.234" gradientUnits="userSpaceOnUse">
<stop stop-color="#FAEA23" stop-opacity="0.34"/>
<stop offset="1" stop-color="#FF7300"/>
</linearGradient>
</defs>
</svg>
