<svg width="208" height="215" viewBox="0 0 208 215" fill="none" xmlns="http://www.w3.org/2000/svg">
<path opacity="0.8" d="M81.8135 147.787C75.1251 160.485 58.9458 165.579 49.1277 155.11C41.364 146.832 35.441 136.886 31.8984 125.913C25.6722 106.627 27.2977 85.7133 36.4244 67.6841C45.551 49.6548 61.4473 35.9548 80.6838 29.5394C99.9203 23.1241 120.955 24.5076 139.251 33.3916C157.547 42.2756 171.636 57.9479 178.481 77.0276C185.325 96.1073 184.375 117.065 175.837 135.38C167.298 153.695 151.855 167.898 132.838 174.927C122.023 178.924 110.545 180.418 99.2405 179.438C84.9343 178.197 78.9335 162.321 84.7901 149.21L87.4278 143.305C91.8278 133.454 104.316 129.85 114.435 126.11V126.11C120.609 123.828 125.622 119.217 128.394 113.272C131.166 107.326 131.475 100.522 129.253 94.3285C127.031 88.1345 122.457 83.0467 116.517 80.1627C110.578 77.2786 103.749 76.8295 97.5044 78.9121C91.2595 80.9948 86.099 85.4423 83.1362 91.2952C80.1733 97.1482 79.6456 103.937 81.6669 110.198V110.198C84.9798 120.46 89.8647 132.501 84.8395 142.042L81.8135 147.787Z" fill="url(#paint0_linear_45_10)"/>
<circle cx="94.7523" cy="120" r="67" transform="rotate(-45 94.7523 120)" fill="#333333"/>
<defs>
<linearGradient id="paint0_linear_45_10" x1="137.139" y1="32.4049" x2="74.0401" y2="172.884" gradientUnits="userSpaceOnUse">
<stop stop-color="#FAEA23" stop-opacity="0.34"/>
<stop offset="1" stop-color="#FF7300"/>
</linearGradient>
</defs>
</svg>
