<svg width="263" height="234" viewBox="0 0 263 234" fill="none" xmlns="http://www.w3.org/2000/svg">
<g opacity="0.94">
<rect width="263" height="234" rx="22" fill="url(#paint0_linear_22_185)" style="mix-blend-mode:exclusion"/>
</g>
<mask id="path-2-outside-1_22_185" maskUnits="userSpaceOnUse" x="56" y="7" width="162" height="75" fill="black">
<rect fill="white" x="56" y="7" width="162" height="75"/>
<path d="M70.4648 12.5273V37H66.7539V12.5273H57.3008V9.48047H79.918V12.5273H70.4648ZM87.0469 19.4805C87.8021 18.1003 88.707 17.0911 89.7617 16.4531C90.8294 15.8021 92.1771 15.4766 93.8047 15.4766C96.0964 15.4766 97.7826 16.0755 98.8633 17.2734C99.957 18.4583 100.504 20.3398 100.504 22.918V37H96.9688V23.6016C96.9688 21.6875 96.6302 20.3073 95.9531 19.4609C95.2891 18.6146 94.1758 18.1914 92.6133 18.1914C90.9596 18.1914 89.6315 18.7643 88.6289 19.9102C87.6393 21.056 87.1445 22.599 87.1445 24.5391V37H83.6289V8.01562H87.1445V15.5547C87.1445 16.0755 87.1315 16.6289 87.1055 17.2148C87.0794 17.7878 87.0534 18.2891 87.0273 18.7188C87.0143 19.1354 87.0013 19.3893 86.9883 19.4805H87.0469ZM108.512 27.1758C108.512 29.5977 109.013 31.4661 110.016 32.7812C111.018 34.0964 112.483 34.7539 114.41 34.7539C115.934 34.7539 117.151 34.4479 118.062 33.8359C118.987 33.224 119.612 32.4492 119.938 31.5117L123.023 32.3906C121.76 35.724 118.889 37.3906 114.41 37.3906C111.285 37.3906 108.902 36.4596 107.262 34.5977C105.634 32.7357 104.82 29.9688 104.82 26.2969C104.82 22.8073 105.634 20.1315 107.262 18.2695C108.902 16.4076 111.24 15.4766 114.273 15.4766C117.385 15.4766 119.716 16.4141 121.266 18.2891C122.815 20.1641 123.59 22.9701 123.59 26.707V27.1758H108.512ZM119.957 24.4805C119.762 22.2539 119.195 20.6328 118.258 19.6172C117.32 18.5885 115.973 18.0742 114.215 18.0742C112.509 18.0742 111.155 18.6471 110.152 19.793C109.163 20.9258 108.629 22.4883 108.551 24.4805H119.957ZM143.121 18.7188V37H139.801V9.48047H144.137L159.02 33.0742C158.863 30.5091 158.785 28.6602 158.785 27.5273V9.48047H162.145V37H157.652L142.926 13.5625C142.952 14.4219 142.991 15.2812 143.043 16.1406C143.095 17 143.121 17.8594 143.121 18.7188ZM170.816 27.1758C170.816 29.5977 171.318 31.4661 172.32 32.7812C173.323 34.0964 174.788 34.7539 176.715 34.7539C178.238 34.7539 179.456 34.4479 180.367 33.8359C181.292 33.224 181.917 32.4492 182.242 31.5117L185.328 32.3906C184.065 35.724 181.194 37.3906 176.715 37.3906C173.59 37.3906 171.207 36.4596 169.566 34.5977C167.939 32.7357 167.125 29.9688 167.125 26.2969C167.125 22.8073 167.939 20.1315 169.566 18.2695C171.207 16.4076 173.544 15.4766 176.578 15.4766C179.69 15.4766 182.021 16.4141 183.57 18.2891C185.12 20.1641 185.895 22.9701 185.895 26.707V27.1758H170.816ZM182.262 24.4805C182.066 22.2539 181.5 20.6328 180.562 19.6172C179.625 18.5885 178.277 18.0742 176.52 18.0742C174.814 18.0742 173.46 18.6471 172.457 19.793C171.467 20.9258 170.934 22.4883 170.855 24.4805H182.262ZM201.441 22.0586L197.613 37H193.551L187.633 15.8672H191.109L194.742 30.4961C194.846 30.9128 194.97 31.4401 195.113 32.0781C195.257 32.7161 195.393 33.3867 195.523 34.0898C195.667 33.4779 195.81 32.8659 195.953 32.2539C196.109 31.6419 196.266 31.0365 196.422 30.4375L200.27 15.8672H204.039L207.73 30.3789C207.887 30.9909 208.036 31.6094 208.18 32.2344C208.336 32.8594 208.486 33.4779 208.629 34.0898C208.772 33.4648 208.915 32.8138 209.059 32.1367C209.215 31.4466 209.358 30.8411 209.488 30.3203L213.238 15.8672H216.676L210.621 37H206.539L202.848 22.0586C202.717 21.5117 202.594 20.9648 202.477 20.418C202.372 19.8581 202.262 19.3047 202.145 18.7578C202.092 19.0443 201.995 19.5326 201.852 20.2227C201.721 20.8997 201.585 21.5117 201.441 22.0586ZM97.3594 68.9531V72H79.7227V44.4805H83.4531V68.9531H97.3594ZM114.762 68.3867C113.954 69.8451 113.017 70.8802 111.949 71.4922C110.895 72.0911 109.579 72.3906 108.004 72.3906C105.686 72.3906 103.987 71.8177 102.906 70.6719C101.839 69.513 101.305 67.6055 101.305 64.9492V50.8672H104.84V64.2656C104.84 66.375 105.165 67.8073 105.816 68.5625C106.48 69.3047 107.607 69.6758 109.195 69.6758C110.888 69.6758 112.223 69.0964 113.199 67.9375C114.176 66.7786 114.664 65.1706 114.664 63.1133V50.8672H118.18V67.4883C118.18 68.7122 118.186 69.7018 118.199 70.457C118.225 71.2122 118.258 71.7266 118.297 72H114.977C114.964 71.9349 114.938 71.6289 114.898 71.082C114.872 70.5352 114.846 69.6367 114.82 68.3867H114.762ZM130.934 63.3281L125.211 72H121.422L128.941 61.1406L121.773 50.8672H125.66L130.934 59.0898L136.168 50.8672H140.094L132.926 61.1016L140.543 72H136.617L130.934 63.3281ZM157.027 68.3867C156.22 69.8451 155.283 70.8802 154.215 71.4922C153.16 72.0911 151.845 72.3906 150.27 72.3906C147.952 72.3906 146.253 71.8177 145.172 70.6719C144.104 69.513 143.57 67.6055 143.57 64.9492V50.8672H147.105V64.2656C147.105 66.375 147.431 67.8073 148.082 68.5625C148.746 69.3047 149.872 69.6758 151.461 69.6758C153.154 69.6758 154.488 69.0964 155.465 67.9375C156.441 66.7786 156.93 65.1706 156.93 63.1133V50.8672H160.445V67.4883C160.445 68.7122 160.452 69.7018 160.465 70.457C160.491 71.2122 160.523 71.7266 160.562 72H157.242C157.229 71.9349 157.203 71.6289 157.164 71.082C157.138 70.5352 157.112 69.6367 157.086 68.3867H157.027ZM169.527 60.9844V72H166.012V55.7891C166.012 55.0469 165.999 54.2656 165.973 53.4453C165.96 52.625 165.934 51.7656 165.895 50.8672H169.215C169.241 51.4661 169.26 52.0065 169.273 52.4883C169.299 52.9701 169.319 53.3932 169.332 53.7578C169.345 54.1094 169.352 54.4089 169.352 54.6562C169.365 54.8906 169.371 55.0664 169.371 55.1836H169.449C169.84 53.9076 170.27 52.918 170.738 52.2148C171.194 51.5638 171.715 51.1146 172.301 50.8672C172.887 50.6068 173.609 50.4766 174.469 50.4766C174.951 50.4766 175.426 50.5417 175.895 50.6719V53.8945C175.452 53.7643 174.827 53.6992 174.02 53.6992C172.561 53.6992 171.448 54.3307 170.68 55.5938C169.911 56.8438 169.527 58.6406 169.527 60.9844ZM180.289 80.3008C179.352 80.3008 178.544 80.2292 177.867 80.0859V77.4492C178.362 77.5273 178.909 77.5664 179.508 77.5664C180.602 77.5664 181.611 77.1562 182.535 76.3359C183.473 75.5286 184.306 74.0508 185.035 71.9023L176.656 50.8672H180.406L184.859 62.5469C185.185 63.3802 185.53 64.3242 185.895 65.3789C186.272 66.4336 186.565 67.3646 186.773 68.1719C187.099 67.2474 187.424 66.3294 187.75 65.418C188.089 64.5065 188.414 63.5951 188.727 62.6836L192.77 50.8672H196.48L188.355 72C187.913 73.1198 187.49 74.0964 187.086 74.9297C186.682 75.776 186.292 76.4727 185.914 77.0195C185.159 78.1263 184.319 78.9466 183.395 79.4805C182.483 80.0273 181.448 80.3008 180.289 80.3008Z"/>
</mask>
<g filter="url(#filter0_i_22_185)">
<path d="M70.4648 12.5273V37H66.7539V12.5273H57.3008V9.48047H79.918V12.5273H70.4648ZM87.0469 19.4805C87.8021 18.1003 88.707 17.0911 89.7617 16.4531C90.8294 15.8021 92.1771 15.4766 93.8047 15.4766C96.0964 15.4766 97.7826 16.0755 98.8633 17.2734C99.957 18.4583 100.504 20.3398 100.504 22.918V37H96.9688V23.6016C96.9688 21.6875 96.6302 20.3073 95.9531 19.4609C95.2891 18.6146 94.1758 18.1914 92.6133 18.1914C90.9596 18.1914 89.6315 18.7643 88.6289 19.9102C87.6393 21.056 87.1445 22.599 87.1445 24.5391V37H83.6289V8.01562H87.1445V15.5547C87.1445 16.0755 87.1315 16.6289 87.1055 17.2148C87.0794 17.7878 87.0534 18.2891 87.0273 18.7188C87.0143 19.1354 87.0013 19.3893 86.9883 19.4805H87.0469ZM108.512 27.1758C108.512 29.5977 109.013 31.4661 110.016 32.7812C111.018 34.0964 112.483 34.7539 114.41 34.7539C115.934 34.7539 117.151 34.4479 118.062 33.8359C118.987 33.224 119.612 32.4492 119.938 31.5117L123.023 32.3906C121.76 35.724 118.889 37.3906 114.41 37.3906C111.285 37.3906 108.902 36.4596 107.262 34.5977C105.634 32.7357 104.82 29.9688 104.82 26.2969C104.82 22.8073 105.634 20.1315 107.262 18.2695C108.902 16.4076 111.24 15.4766 114.273 15.4766C117.385 15.4766 119.716 16.4141 121.266 18.2891C122.815 20.1641 123.59 22.9701 123.59 26.707V27.1758H108.512ZM119.957 24.4805C119.762 22.2539 119.195 20.6328 118.258 19.6172C117.32 18.5885 115.973 18.0742 114.215 18.0742C112.509 18.0742 111.155 18.6471 110.152 19.793C109.163 20.9258 108.629 22.4883 108.551 24.4805H119.957ZM143.121 18.7188V37H139.801V9.48047H144.137L159.02 33.0742C158.863 30.5091 158.785 28.6602 158.785 27.5273V9.48047H162.145V37H157.652L142.926 13.5625C142.952 14.4219 142.991 15.2812 143.043 16.1406C143.095 17 143.121 17.8594 143.121 18.7188ZM170.816 27.1758C170.816 29.5977 171.318 31.4661 172.32 32.7812C173.323 34.0964 174.788 34.7539 176.715 34.7539C178.238 34.7539 179.456 34.4479 180.367 33.8359C181.292 33.224 181.917 32.4492 182.242 31.5117L185.328 32.3906C184.065 35.724 181.194 37.3906 176.715 37.3906C173.59 37.3906 171.207 36.4596 169.566 34.5977C167.939 32.7357 167.125 29.9688 167.125 26.2969C167.125 22.8073 167.939 20.1315 169.566 18.2695C171.207 16.4076 173.544 15.4766 176.578 15.4766C179.69 15.4766 182.021 16.4141 183.57 18.2891C185.12 20.1641 185.895 22.9701 185.895 26.707V27.1758H170.816ZM182.262 24.4805C182.066 22.2539 181.5 20.6328 180.562 19.6172C179.625 18.5885 178.277 18.0742 176.52 18.0742C174.814 18.0742 173.46 18.6471 172.457 19.793C171.467 20.9258 170.934 22.4883 170.855 24.4805H182.262ZM201.441 22.0586L197.613 37H193.551L187.633 15.8672H191.109L194.742 30.4961C194.846 30.9128 194.97 31.4401 195.113 32.0781C195.257 32.7161 195.393 33.3867 195.523 34.0898C195.667 33.4779 195.81 32.8659 195.953 32.2539C196.109 31.6419 196.266 31.0365 196.422 30.4375L200.27 15.8672H204.039L207.73 30.3789C207.887 30.9909 208.036 31.6094 208.18 32.2344C208.336 32.8594 208.486 33.4779 208.629 34.0898C208.772 33.4648 208.915 32.8138 209.059 32.1367C209.215 31.4466 209.358 30.8411 209.488 30.3203L213.238 15.8672H216.676L210.621 37H206.539L202.848 22.0586C202.717 21.5117 202.594 20.9648 202.477 20.418C202.372 19.8581 202.262 19.3047 202.145 18.7578C202.092 19.0443 201.995 19.5326 201.852 20.2227C201.721 20.8997 201.585 21.5117 201.441 22.0586ZM97.3594 68.9531V72H79.7227V44.4805H83.4531V68.9531H97.3594ZM114.762 68.3867C113.954 69.8451 113.017 70.8802 111.949 71.4922C110.895 72.0911 109.579 72.3906 108.004 72.3906C105.686 72.3906 103.987 71.8177 102.906 70.6719C101.839 69.513 101.305 67.6055 101.305 64.9492V50.8672H104.84V64.2656C104.84 66.375 105.165 67.8073 105.816 68.5625C106.48 69.3047 107.607 69.6758 109.195 69.6758C110.888 69.6758 112.223 69.0964 113.199 67.9375C114.176 66.7786 114.664 65.1706 114.664 63.1133V50.8672H118.18V67.4883C118.18 68.7122 118.186 69.7018 118.199 70.457C118.225 71.2122 118.258 71.7266 118.297 72H114.977C114.964 71.9349 114.938 71.6289 114.898 71.082C114.872 70.5352 114.846 69.6367 114.82 68.3867H114.762ZM130.934 63.3281L125.211 72H121.422L128.941 61.1406L121.773 50.8672H125.66L130.934 59.0898L136.168 50.8672H140.094L132.926 61.1016L140.543 72H136.617L130.934 63.3281ZM157.027 68.3867C156.22 69.8451 155.283 70.8802 154.215 71.4922C153.16 72.0911 151.845 72.3906 150.27 72.3906C147.952 72.3906 146.253 71.8177 145.172 70.6719C144.104 69.513 143.57 67.6055 143.57 64.9492V50.8672H147.105V64.2656C147.105 66.375 147.431 67.8073 148.082 68.5625C148.746 69.3047 149.872 69.6758 151.461 69.6758C153.154 69.6758 154.488 69.0964 155.465 67.9375C156.441 66.7786 156.93 65.1706 156.93 63.1133V50.8672H160.445V67.4883C160.445 68.7122 160.452 69.7018 160.465 70.457C160.491 71.2122 160.523 71.7266 160.562 72H157.242C157.229 71.9349 157.203 71.6289 157.164 71.082C157.138 70.5352 157.112 69.6367 157.086 68.3867H157.027ZM169.527 60.9844V72H166.012V55.7891C166.012 55.0469 165.999 54.2656 165.973 53.4453C165.96 52.625 165.934 51.7656 165.895 50.8672H169.215C169.241 51.4661 169.26 52.0065 169.273 52.4883C169.299 52.9701 169.319 53.3932 169.332 53.7578C169.345 54.1094 169.352 54.4089 169.352 54.6562C169.365 54.8906 169.371 55.0664 169.371 55.1836H169.449C169.84 53.9076 170.27 52.918 170.738 52.2148C171.194 51.5638 171.715 51.1146 172.301 50.8672C172.887 50.6068 173.609 50.4766 174.469 50.4766C174.951 50.4766 175.426 50.5417 175.895 50.6719V53.8945C175.452 53.7643 174.827 53.6992 174.02 53.6992C172.561 53.6992 171.448 54.3307 170.68 55.5938C169.911 56.8438 169.527 58.6406 169.527 60.9844ZM180.289 80.3008C179.352 80.3008 178.544 80.2292 177.867 80.0859V77.4492C178.362 77.5273 178.909 77.5664 179.508 77.5664C180.602 77.5664 181.611 77.1562 182.535 76.3359C183.473 75.5286 184.306 74.0508 185.035 71.9023L176.656 50.8672H180.406L184.859 62.5469C185.185 63.3802 185.53 64.3242 185.895 65.3789C186.272 66.4336 186.565 67.3646 186.773 68.1719C187.099 67.2474 187.424 66.3294 187.75 65.418C188.089 64.5065 188.414 63.5951 188.727 62.6836L192.77 50.8672H196.48L188.355 72C187.913 73.1198 187.49 74.0964 187.086 74.9297C186.682 75.776 186.292 76.4727 185.914 77.0195C185.159 78.1263 184.319 78.9466 183.395 79.4805C182.483 80.0273 181.448 80.3008 180.289 80.3008Z" fill="white"/>
</g>
<path d="M70.4648 12.5273V11.8273H69.7648V12.5273H70.4648ZM70.4648 37V37.7H71.1648V37H70.4648ZM66.7539 37H66.0539V37.7H66.7539V37ZM66.7539 12.5273H67.4539V11.8273H66.7539V12.5273ZM57.3008 12.5273H56.6008V13.2273H57.3008V12.5273ZM57.3008 9.48047V8.78047H56.6008V9.48047H57.3008ZM79.918 9.48047H80.618V8.78047H79.918V9.48047ZM79.918 12.5273V13.2273H80.618V12.5273H79.918ZM69.7648 12.5273V37H71.1648V12.5273H69.7648ZM70.4648 36.3H66.7539V37.7H70.4648V36.3ZM67.4539 37V12.5273H66.0539V37H67.4539ZM66.7539 11.8273H57.3008V13.2273H66.7539V11.8273ZM58.0008 12.5273V9.48047H56.6008V12.5273H58.0008ZM57.3008 10.1805H79.918V8.78047H57.3008V10.1805ZM79.218 9.48047V12.5273H80.618V9.48047H79.218ZM79.918 11.8273H70.4648V13.2273H79.918V11.8273ZM87.0469 19.4805V20.1805H87.4618L87.661 19.8165L87.0469 19.4805ZM89.7617 16.4531L90.124 17.0521L90.1261 17.0508L89.7617 16.4531ZM98.8633 17.2734L98.3435 17.7424L98.3489 17.7482L98.8633 17.2734ZM100.504 37V37.7H101.204V37H100.504ZM96.9688 37H96.2688V37.7H96.9688V37ZM95.9531 19.4609L95.4024 19.8931L95.4065 19.8982L95.9531 19.4609ZM88.6289 19.9102L88.1021 19.4492L88.0991 19.4526L88.6289 19.9102ZM87.1445 37V37.7H87.8445V37H87.1445ZM83.6289 37H82.9289V37.7H83.6289V37ZM83.6289 8.01562V7.31563H82.9289V8.01562H83.6289ZM87.1445 8.01562H87.8445V7.31563H87.1445V8.01562ZM87.1055 17.2148L87.8047 17.2466L87.8048 17.2459L87.1055 17.2148ZM87.0273 18.7188L86.3286 18.6764L86.328 18.6866L86.3277 18.6969L87.0273 18.7188ZM86.9883 19.4805L86.2953 19.3815L86.1812 20.1805H86.9883V19.4805ZM87.661 19.8165C88.373 18.5152 89.2004 17.6108 90.124 17.0521L89.3994 15.8542C88.2137 16.5715 87.2312 17.6853 86.4328 19.1445L87.661 19.8165ZM90.1261 17.0508C91.0556 16.484 92.2677 16.1766 93.8047 16.1766V14.7766C92.0865 14.7766 90.6032 15.1202 89.3973 15.8555L90.1261 17.0508ZM93.8047 16.1766C95.9837 16.1766 97.4437 16.7449 98.3435 17.7423L99.383 16.8045C98.1214 15.4062 96.209 14.7766 93.8047 14.7766V16.1766ZM98.3489 17.7482C99.2693 18.7453 99.8039 20.4156 99.8039 22.918H101.204C101.204 20.2641 100.645 18.1713 99.3776 16.7986L98.3489 17.7482ZM99.8039 22.918V37H101.204V22.918H99.8039ZM100.504 36.3H96.9688V37.7H100.504V36.3ZM97.6687 37V23.6016H96.2688V37H97.6687ZM97.6687 23.6016C97.6687 21.6374 97.3276 20.0585 96.4997 19.0237L95.4065 19.8982C95.9328 20.5561 96.2688 21.7376 96.2688 23.6016H97.6687ZM96.5038 19.0288C95.6551 17.9471 94.2894 17.4914 92.6133 17.4914V18.8914C94.0621 18.8914 94.923 19.2821 95.4024 19.893L96.5038 19.0288ZM92.6133 17.4914C90.7774 17.4914 89.25 18.1373 88.1021 19.4492L89.1557 20.3711C90.013 19.3913 91.1419 18.8914 92.6133 18.8914V17.4914ZM88.0991 19.4526C86.9717 20.758 86.4445 22.4794 86.4445 24.5391H87.8445C87.8445 22.7185 88.3069 21.354 89.1587 20.3677L88.0991 19.4526ZM86.4445 24.5391V37H87.8445V24.5391H86.4445ZM87.1445 36.3H83.6289V37.7H87.1445V36.3ZM84.3289 37V8.01562H82.9289V37H84.3289ZM83.6289 8.71562H87.1445V7.31563H83.6289V8.71562ZM86.4445 8.01562V15.5547H87.8445V8.01562H86.4445ZM86.4445 15.5547C86.4445 16.064 86.4318 16.6069 86.4062 17.1838L87.8048 17.2459C87.8312 16.6509 87.8445 16.0871 87.8445 15.5547H86.4445ZM86.4062 17.1831C86.3803 17.7535 86.3544 18.2512 86.3286 18.6764L87.7261 18.7611C87.7524 18.327 87.7786 17.822 87.8047 17.2466L86.4062 17.1831ZM86.3277 18.6969C86.3212 18.9031 86.3149 19.0655 86.3087 19.1858C86.3056 19.246 86.3027 19.2933 86.3 19.3289C86.2971 19.3675 86.2952 19.382 86.2953 19.3815L87.6812 19.5795C87.7011 19.4405 87.7145 19.1396 87.727 18.7406L86.3277 18.6969ZM86.9883 20.1805H87.0469V18.7805H86.9883V20.1805ZM108.512 27.1758V26.4758H107.812V27.1758H108.512ZM118.062 33.8359L117.676 33.2522L117.672 33.2548L118.062 33.8359ZM119.938 31.5117L120.129 30.8385L119.493 30.6573L119.276 31.2821L119.938 31.5117ZM123.023 32.3906L123.678 32.6387L123.948 31.9261L123.215 31.7174L123.023 32.3906ZM107.262 34.5977L106.735 35.0584L106.737 35.0604L107.262 34.5977ZM107.262 18.2695L106.737 17.8068L106.735 17.8088L107.262 18.2695ZM123.59 27.1758V27.8758H124.29V27.1758H123.59ZM119.957 24.4805V25.1805H120.721L120.654 24.4193L119.957 24.4805ZM118.258 19.6172L117.74 20.0887L117.743 20.092L118.258 19.6172ZM110.152 19.793L109.626 19.332L109.625 19.3324L110.152 19.793ZM108.551 24.4805L107.851 24.453L107.823 25.1805H108.551V24.4805ZM107.812 27.1758C107.812 29.6825 108.329 31.7235 109.459 33.2056L110.572 32.3569C109.697 31.2088 109.212 29.5128 109.212 27.1758H107.812ZM109.459 33.2056C110.617 34.7245 112.306 35.4539 114.41 35.4539V34.0539C112.661 34.0539 111.42 33.4682 110.572 32.3569L109.459 33.2056ZM114.41 35.4539C116.02 35.4539 117.389 35.1312 118.453 34.4171L117.672 33.2548C116.913 33.7646 115.847 34.0539 114.41 34.0539V35.4539ZM118.449 34.4196C119.486 33.7334 120.217 32.8407 120.599 31.7413L119.276 31.2821C119.007 32.0577 118.488 32.7145 117.676 33.2522L118.449 34.4196ZM119.746 32.1849L122.832 33.0639L123.215 31.7174L120.129 30.8385L119.746 32.1849ZM122.369 32.1426C121.79 33.6708 120.857 34.7888 119.571 35.5352C118.274 36.2886 116.568 36.6906 114.41 36.6906V38.0906C116.732 38.0906 118.701 37.6593 120.274 36.746C121.86 35.8258 122.994 34.4438 123.678 32.6387L122.369 32.1426ZM114.41 36.6906C111.43 36.6906 109.262 35.8086 107.787 34.1349L106.737 35.0604C108.543 37.1107 111.14 38.0906 114.41 38.0906V36.6906ZM107.789 34.137C106.316 32.452 105.52 29.8792 105.52 26.2969H104.12C104.12 30.0583 104.952 33.0193 106.735 35.0583L107.789 34.137ZM105.52 26.2969C105.52 22.9076 106.311 20.4208 107.789 18.7302L106.735 17.8088C104.957 19.8423 104.12 22.707 104.12 26.2969H105.52ZM107.787 18.7323C109.266 17.0541 111.392 16.1766 114.273 16.1766V14.7766C111.087 14.7766 108.539 15.761 106.737 17.8068L107.787 18.7323ZM114.273 16.1766C117.24 16.1766 119.345 17.0639 120.726 18.735L121.805 17.8431C120.087 15.7642 117.531 14.7766 114.273 14.7766V16.1766ZM120.726 18.735C122.129 20.4326 122.89 23.0496 122.89 26.707H124.29C124.29 22.8905 123.501 19.8955 121.805 17.8431L120.726 18.735ZM122.89 26.707V27.1758H124.29V26.707H122.89ZM123.59 26.4758H108.512V27.8758H123.59V26.4758ZM120.654 24.4193C120.453 22.1265 119.862 20.3231 118.772 19.1424L117.743 20.092C118.529 20.9425 119.07 22.3813 119.26 24.5416L120.654 24.4193ZM118.775 19.1457C117.672 17.9351 116.114 17.3742 114.215 17.3742V18.7742C115.831 18.7742 116.969 19.242 117.74 20.0887L118.775 19.1457ZM114.215 17.3742C112.334 17.3742 110.778 18.015 109.626 19.332L110.679 20.2539C111.532 19.2793 112.684 18.7742 114.215 18.7742V17.3742ZM109.625 19.3324C108.5 20.6199 107.934 22.3533 107.851 24.453L109.25 24.5079C109.324 22.6233 109.825 21.2316 110.68 20.2535L109.625 19.3324ZM108.551 25.1805H119.957V23.7805H108.551V25.1805ZM143.121 37V37.7H143.821V37H143.121ZM139.801 37H139.101V37.7H139.801V37ZM139.801 9.48047V8.78047H139.101V9.48047H139.801ZM144.137 9.48047L144.729 9.10701L144.523 8.78047H144.137V9.48047ZM159.02 33.0742L158.427 33.4477L159.718 33.0317L159.02 33.0742ZM158.785 9.48047V8.78047H158.085V9.48047H158.785ZM162.145 9.48047H162.845V8.78047H162.145V9.48047ZM162.145 37V37.7H162.845V37H162.145ZM157.652 37L157.06 37.3724L157.265 37.7H157.652V37ZM142.926 13.5625L143.518 13.1901L142.148 11.0091L142.226 13.5837L142.926 13.5625ZM142.421 18.7188V37H143.821V18.7188H142.421ZM143.121 36.3H139.801V37.7H143.121V36.3ZM140.501 37V9.48047H139.101V37H140.501ZM139.801 10.1805H144.137V8.78047H139.801V10.1805ZM143.545 9.85393L158.427 33.4477L159.612 32.7008L144.729 9.10701L143.545 9.85393ZM159.718 33.0317C159.562 30.4676 159.485 28.6371 159.485 27.5273H158.085C158.085 28.6832 158.165 30.5506 158.321 33.1168L159.718 33.0317ZM159.485 27.5273V9.48047H158.085V27.5273H159.485ZM158.785 10.1805H162.145V8.78047H158.785V10.1805ZM161.445 9.48047V37H162.845V9.48047H161.445ZM162.145 36.3H157.652V37.7H162.145V36.3ZM158.245 36.6276L143.518 13.1901L142.333 13.9349L157.06 37.3724L158.245 36.6276ZM142.226 13.5837C142.252 14.4501 142.292 15.3166 142.344 16.183L143.742 16.0983C143.69 15.2459 143.651 14.3936 143.625 13.5413L142.226 13.5837ZM142.344 16.183C142.395 17.0283 142.421 17.8735 142.421 18.7188H143.821C143.821 17.8452 143.795 16.9717 143.742 16.0983L142.344 16.183ZM170.816 27.1758V26.4758H170.116V27.1758H170.816ZM180.367 33.8359L179.981 33.2522L179.977 33.2548L180.367 33.8359ZM182.242 31.5117L182.434 30.8385L181.798 30.6573L181.581 31.2821L182.242 31.5117ZM185.328 32.3906L185.983 32.6387L186.253 31.9261L185.52 31.7174L185.328 32.3906ZM169.566 34.5977L169.039 35.0584L169.041 35.0604L169.566 34.5977ZM169.566 18.2695L169.041 17.8068L169.039 17.8088L169.566 18.2695ZM185.895 27.1758V27.8758H186.595V27.1758H185.895ZM182.262 24.4805V25.1805H183.026L182.959 24.4193L182.262 24.4805ZM180.562 19.6172L180.045 20.0887L180.048 20.092L180.562 19.6172ZM172.457 19.793L171.93 19.332L171.93 19.3324L172.457 19.793ZM170.855 24.4805L170.156 24.453L170.127 25.1805H170.855V24.4805ZM170.116 27.1758C170.116 29.6825 170.634 31.7235 171.764 33.2056L172.877 32.3569C172.002 31.2088 171.516 29.5128 171.516 27.1758H170.116ZM171.764 33.2056C172.922 34.7245 174.61 35.4539 176.715 35.4539V34.0539C174.965 34.0539 173.724 33.4682 172.877 32.3569L171.764 33.2056ZM176.715 35.4539C178.325 35.4539 179.694 35.1312 180.757 34.4171L179.977 33.2548C179.218 33.7646 178.151 34.0539 176.715 34.0539V35.4539ZM180.754 34.4196C181.79 33.7334 182.522 32.8407 182.903 31.7413L181.581 31.2821C181.312 32.0577 180.793 32.7145 179.981 33.2522L180.754 34.4196ZM182.05 32.1849L185.136 33.0639L185.52 31.7174L182.434 30.8385L182.05 32.1849ZM184.674 32.1426C184.095 33.6708 183.162 34.7888 181.876 35.5352C180.578 36.2886 178.873 36.6906 176.715 36.6906V38.0906C179.036 38.0906 181.006 37.6593 182.579 36.746C184.164 35.8258 185.299 34.4438 185.983 32.6387L184.674 32.1426ZM176.715 36.6906C173.735 36.6906 171.566 35.8086 170.092 34.1349L169.041 35.0604C170.848 37.1107 173.445 38.0906 176.715 38.0906V36.6906ZM170.093 34.137C168.621 32.452 167.825 29.8792 167.825 26.2969H166.425C166.425 30.0583 167.257 33.0193 169.039 35.0583L170.093 34.137ZM167.825 26.2969C167.825 22.9076 168.616 20.4208 170.093 18.7302L169.039 17.8088C167.262 19.8423 166.425 22.707 166.425 26.2969H167.825ZM170.092 18.7323C171.57 17.0541 173.697 16.1766 176.578 16.1766V14.7766C173.392 14.7766 170.844 15.761 169.041 17.8068L170.092 18.7323ZM176.578 16.1766C179.544 16.1766 181.65 17.0639 183.031 18.735L184.11 17.8431C182.392 15.7642 179.836 14.7766 176.578 14.7766V16.1766ZM183.031 18.735C184.434 20.4326 185.195 23.0496 185.195 26.707H186.595C186.595 22.8905 185.806 19.8955 184.11 17.8431L183.031 18.735ZM185.195 26.707V27.1758H186.595V26.707H185.195ZM185.895 26.4758H170.816V27.8758H185.895V26.4758ZM182.959 24.4193C182.758 22.1265 182.167 20.3231 181.077 19.1424L180.048 20.092C180.833 20.9425 181.375 22.3813 181.564 24.5416L182.959 24.4193ZM181.08 19.1457C179.977 17.9351 178.419 17.3742 176.52 17.3742V18.7742C178.136 18.7742 179.273 19.242 180.045 20.0887L181.08 19.1457ZM176.52 17.3742C174.639 17.3742 173.083 18.015 171.93 19.332L172.984 20.2539C173.837 19.2793 174.989 18.7742 176.52 18.7742V17.3742ZM171.93 19.3324C170.805 20.6199 170.238 22.3533 170.156 24.453L171.555 24.5079C171.629 22.6233 172.13 21.2316 172.984 20.2535L171.93 19.3324ZM170.855 25.1805H182.262V23.7805H170.855V25.1805ZM201.441 22.0586L200.764 21.8812L200.763 21.8849L201.441 22.0586ZM197.613 37V37.7H198.157L198.291 37.1737L197.613 37ZM193.551 37L192.877 37.1888L193.02 37.7H193.551V37ZM187.633 15.8672V15.1672H186.71L186.959 16.056L187.633 15.8672ZM191.109 15.8672L191.789 15.6985L191.657 15.1672H191.109V15.8672ZM194.742 30.4961L194.063 30.6648L194.063 30.6659L194.742 30.4961ZM195.113 32.0781L194.43 32.2315L195.113 32.0781ZM195.523 34.0898L194.835 34.2173L196.205 34.2494L195.523 34.0898ZM195.953 32.2539L195.275 32.0807L195.272 32.0944L195.953 32.2539ZM196.422 30.4375L195.745 30.2588L195.745 30.2608L196.422 30.4375ZM200.27 15.8672V15.1672H199.73L199.593 15.6885L200.27 15.8672ZM204.039 15.8672L204.717 15.6946L204.583 15.1672H204.039V15.8672ZM207.73 30.3789L207.052 30.5515L207.052 30.5521L207.73 30.3789ZM208.18 32.2344L207.497 32.3908L207.501 32.4041L208.18 32.2344ZM208.629 34.0898L207.947 34.2494L209.311 34.2462L208.629 34.0898ZM209.059 32.1367L208.376 31.9821L208.374 31.9918L209.059 32.1367ZM209.488 30.3203L208.811 30.1445L208.809 30.1505L209.488 30.3203ZM213.238 15.8672V15.1672H212.697L212.561 15.6914L213.238 15.8672ZM216.676 15.8672L217.349 16.06L217.604 15.1672H216.676V15.8672ZM210.621 37V37.7H211.149L211.294 37.1928L210.621 37ZM206.539 37L205.859 37.1679L205.991 37.7H206.539V37ZM202.848 22.0586L202.167 22.2207L202.168 22.2265L202.848 22.0586ZM202.477 20.418L201.788 20.546L201.79 20.5553L201.792 20.5646L202.477 20.418ZM202.145 18.7578L202.829 18.6111L201.456 18.6326L202.145 18.7578ZM201.852 20.2227L201.166 20.0804L201.164 20.0905L201.852 20.2227ZM200.763 21.8849L196.935 36.8263L198.291 37.1737L202.12 22.2323L200.763 21.8849ZM197.613 36.3H193.551V37.7H197.613V36.3ZM194.225 36.8112L188.307 15.6784L186.959 16.056L192.877 37.1888L194.225 36.8112ZM187.633 16.5672H191.109V15.1672H187.633V16.5672ZM190.43 16.0359L194.063 30.6648L195.422 30.3274L191.789 15.6985L190.43 16.0359ZM194.063 30.6659C194.165 31.075 194.288 31.5964 194.43 32.2315L195.796 31.9248C195.652 31.2838 195.527 30.7505 195.421 30.3263L194.063 30.6659ZM194.43 32.2315C194.571 32.8601 194.706 33.522 194.835 34.2173L196.212 33.9624C196.08 33.2514 195.942 32.5722 195.796 31.9248L194.43 32.2315ZM196.205 34.2494C196.223 34.1735 196.214 34.2104 196.232 34.1346C196.25 34.0588 196.241 34.0957 196.259 34.0199C196.276 33.9441 196.268 33.9809 196.286 33.9051C196.303 33.8293 196.295 33.8662 196.312 33.7904C196.33 33.7146 196.322 33.7514 196.339 33.6756C196.34 33.6744 196.34 33.6732 196.34 33.672C196.34 33.6709 196.341 33.6697 196.341 33.6685C196.341 33.6673 196.342 33.6661 196.342 33.6649C196.342 33.6637 196.342 33.6625 196.343 33.6613C196.343 33.6601 196.343 33.6589 196.343 33.6577C196.344 33.6565 196.344 33.6553 196.344 33.6541C196.345 33.6529 196.345 33.6517 196.345 33.6505C196.345 33.6493 196.346 33.6481 196.346 33.6469C196.346 33.6458 196.347 33.6446 196.347 33.6434C196.347 33.6422 196.347 33.641 196.348 33.6398C196.348 33.6386 196.348 33.6374 196.349 33.6362C196.349 33.635 196.349 33.6338 196.349 33.6326C196.35 33.6314 196.35 33.6302 196.35 33.629C196.35 33.6278 196.351 33.6266 196.351 33.6254C196.351 33.6242 196.352 33.623 196.352 33.6218C196.352 33.6206 196.352 33.6195 196.353 33.6183C196.353 33.6171 196.353 33.6159 196.354 33.6147C196.354 33.6135 196.354 33.6123 196.354 33.6111C196.355 33.6099 196.355 33.6087 196.355 33.6075C196.356 33.6063 196.356 33.6051 196.356 33.6039C196.356 33.6027 196.357 33.6015 196.357 33.6003C196.357 33.5991 196.357 33.5979 196.358 33.5967C196.358 33.5955 196.358 33.5944 196.359 33.5932C196.359 33.592 196.359 33.5908 196.359 33.5896C196.36 33.5884 196.36 33.5872 196.36 33.586C196.361 33.5848 196.361 33.5836 196.361 33.5824C196.361 33.5812 196.362 33.58 196.362 33.5788C196.362 33.5776 196.363 33.5764 196.363 33.5752C196.363 33.574 196.363 33.5728 196.364 33.5716C196.364 33.5704 196.364 33.5693 196.364 33.5681C196.365 33.5669 196.365 33.5657 196.365 33.5645C196.366 33.5633 196.366 33.5621 196.366 33.5609C196.383 33.4871 196.376 33.5199 196.393 33.4461C196.395 33.4386 196.405 33.3963 196.406 33.3888C196.408 33.3812 196.418 33.339 196.42 33.3314C196.444 33.2289 196.503 32.975 196.527 32.8724C196.53 32.8622 196.538 32.8252 196.541 32.815C196.543 32.8048 196.552 32.7679 196.554 32.7577C196.557 32.7475 196.565 32.7105 196.568 32.7003C196.57 32.6901 196.579 32.6531 196.581 32.6429C196.583 32.6327 196.592 32.5957 196.594 32.5855C196.597 32.5753 196.605 32.5384 196.608 32.5282C196.61 32.518 196.619 32.481 196.621 32.4708C196.624 32.4606 196.632 32.4236 196.635 32.4134L195.272 32.0944C195.247 32.2012 195.189 32.4466 195.164 32.5534C195.14 32.6549 195.08 32.9108 195.057 33.0124C195.055 33.0185 195.031 33.1209 195.03 33.1271C195.029 33.1316 195.017 33.18 195.016 33.1845C195.016 33.1865 195.01 33.2111 195.01 33.2132C195.009 33.2144 195.009 33.2156 195.009 33.2167C195.009 33.2179 195.008 33.2191 195.008 33.2203C195.008 33.2215 195.007 33.2227 195.007 33.2239C195.007 33.2251 195.007 33.2263 195.006 33.2275C195.006 33.2287 195.006 33.2299 195.006 33.2311C195.005 33.2323 195.005 33.2335 195.005 33.2347C195.004 33.2359 195.004 33.2371 195.004 33.2383C195.004 33.2395 195.003 33.2407 195.003 33.2418C195.003 33.243 195.002 33.2442 195.002 33.2454C195.002 33.2466 195.002 33.2478 195.001 33.249C195.001 33.2502 195.001 33.2514 195 33.2526C195 33.2538 195 33.255 195 33.2562C194.999 33.2574 194.999 33.2586 194.999 33.2598C194.999 33.261 194.998 33.2622 194.998 33.2634C194.998 33.2646 194.997 33.2658 194.997 33.2669C194.997 33.2681 194.997 33.2693 194.996 33.2705C194.996 33.2717 194.996 33.2729 194.995 33.2741C194.995 33.2753 194.995 33.2765 194.995 33.2777C194.994 33.2789 194.994 33.2801 194.994 33.2813C194.993 33.2825 194.993 33.2837 194.993 33.2849C194.993 33.2861 194.992 33.2873 194.992 33.2885C194.992 33.2897 194.992 33.2909 194.991 33.292C194.991 33.2932 194.991 33.2944 194.99 33.2956C194.99 33.2968 194.99 33.298 194.99 33.2992C194.989 33.3003 194.983 33.3268 194.983 33.3279C194.981 33.3368 194.978 33.3477 194.976 33.3566C194.972 33.3721 194.953 33.4558 194.949 33.4713C194.946 33.4869 194.926 33.5705 194.922 33.5861C194.919 33.6016 194.899 33.6853 194.896 33.7008C194.892 33.7164 194.872 33.8 194.869 33.8156C194.865 33.8311 194.845 33.9148 194.842 33.9303L196.205 34.2494ZM196.631 32.4271C196.787 31.8162 196.943 31.212 197.099 30.6142L195.745 30.2608C195.588 30.861 195.431 31.4676 195.275 32.0807L196.631 32.4271ZM197.099 30.6162L200.946 16.0459L199.593 15.6885L195.745 30.2588L197.099 30.6162ZM200.27 16.5672H204.039V15.1672H200.27V16.5672ZM203.361 16.0398L207.052 30.5515L208.409 30.2063L204.717 15.6946L203.361 16.0398ZM207.052 30.5521C207.207 31.1584 207.355 31.7713 207.497 32.3907L208.862 32.078C208.718 31.4475 208.566 30.8234 208.409 30.2057L207.052 30.5521ZM207.501 32.4041C207.656 33.0258 207.805 33.6409 207.947 34.2494L209.31 33.9303C209.166 33.3148 209.016 32.6929 208.859 32.0646L207.501 32.4041ZM209.311 34.2462C209.455 33.6171 209.599 32.9622 209.743 32.2816L208.374 31.9918C208.231 32.6654 208.089 33.3126 207.947 33.9335L209.311 34.2462ZM209.741 32.2913C209.897 31.6048 210.039 31.0046 210.167 30.4901L208.809 30.1505C208.677 30.6777 208.533 31.2884 208.376 31.9821L209.741 32.2913ZM210.166 30.4961L213.916 16.043L212.561 15.6914L208.811 30.1445L210.166 30.4961ZM213.238 16.5672H216.676V15.1672H213.238V16.5672ZM216.003 15.6744L209.948 36.8072L211.294 37.1928L217.349 16.06L216.003 15.6744ZM210.621 36.3H206.539V37.7H210.621V36.3ZM207.219 36.8321L203.527 21.8907L202.168 22.2265L205.859 37.1679L207.219 36.8321ZM203.529 21.8965C203.4 21.3547 203.277 20.813 203.161 20.2713L201.792 20.5646C201.91 21.1167 202.035 21.6687 202.167 22.2207L203.529 21.8965ZM203.165 20.2899C203.059 19.7239 202.948 19.1643 202.829 18.6111L201.46 18.9045C201.576 19.4451 201.685 19.9922 201.788 20.546L203.165 20.2899ZM201.456 18.6326C201.405 18.9096 201.309 19.3903 201.166 20.0804L202.537 20.3649C202.68 19.6748 202.779 19.1789 202.833 18.883L201.456 18.6326ZM201.164 20.0905C201.036 20.7555 200.903 21.3521 200.764 21.8812L202.119 22.2359C202.266 21.6713 202.406 21.0439 202.539 20.3548L201.164 20.0905ZM97.3594 68.9531H98.0594V68.2531H97.3594V68.9531ZM97.3594 72V72.7H98.0594V72H97.3594ZM79.7227 72H79.0227V72.7H79.7227V72ZM79.7227 44.4805V43.7805H79.0227V44.4805H79.7227ZM83.4531 44.4805H84.1531V43.7805H83.4531V44.4805ZM83.4531 68.9531H82.7531V69.6531H83.4531V68.9531ZM96.6594 68.9531V72H98.0594V68.9531H96.6594ZM97.3594 71.3H79.7227V72.7H97.3594V71.3ZM80.4227 72V44.4805H79.0227V72H80.4227ZM79.7227 45.1805H83.4531V43.7805H79.7227V45.1805ZM82.7531 44.4805V68.9531H84.1531V44.4805H82.7531ZM83.4531 69.6531H97.3594V68.2531H83.4531V69.6531ZM114.762 68.3867V67.6867H114.349L114.149 68.0477L114.762 68.3867ZM111.949 71.4922L112.295 72.1009L112.297 72.0995L111.949 71.4922ZM102.906 70.6719L102.391 71.1462L102.397 71.1522L102.906 70.6719ZM101.305 50.8672V50.1672H100.605V50.8672H101.305ZM104.84 50.8672H105.54V50.1672H104.84V50.8672ZM105.816 68.5625L105.286 69.0196L105.295 69.0293L105.816 68.5625ZM113.199 67.9375L112.664 67.4864L113.199 67.9375ZM114.664 50.8672V50.1672H113.964V50.8672H114.664ZM118.18 50.8672H118.88V50.1672H118.18V50.8672ZM118.199 70.457L117.499 70.4691L117.5 70.4812L118.199 70.457ZM118.297 72V72.7H119.104L118.99 71.901L118.297 72ZM114.977 72L114.29 72.1373L114.403 72.7H114.977V72ZM114.898 71.082L114.199 71.1153L114.2 71.1236L114.2 71.1319L114.898 71.082ZM114.82 68.3867L115.52 68.3721L115.506 67.6867H114.82V68.3867ZM114.149 68.0477C113.383 69.4324 112.525 70.3552 111.601 70.8849L112.297 72.0995C113.509 71.4052 114.526 70.2577 115.374 68.7257L114.149 68.0477ZM111.604 70.8835C110.681 71.4073 109.494 71.6906 108.004 71.6906V73.0906C109.665 73.0906 111.108 72.775 112.295 72.1009L111.604 70.8835ZM108.004 71.6906C105.788 71.6906 104.312 71.1423 103.415 70.1916L102.397 71.1522C103.662 72.4931 105.585 73.0906 108.004 73.0906V71.6906ZM103.421 70.1976C102.531 69.2317 102.005 67.5418 102.005 64.9492H100.605C100.605 67.6692 101.146 69.7943 102.391 71.1462L103.421 70.1976ZM102.005 64.9492V50.8672H100.605V64.9492H102.005ZM101.305 51.5672H104.84V50.1672H101.305V51.5672ZM104.14 50.8672V64.2656H105.54V50.8672H104.14ZM104.14 64.2656C104.14 65.352 104.223 66.2932 104.401 67.077C104.578 67.8559 104.859 68.5239 105.286 69.0196L106.347 68.1054C106.123 67.8459 105.915 67.4202 105.767 66.7667C105.619 66.1182 105.54 65.2887 105.54 64.2656H104.14ZM105.295 69.0293C106.153 69.9887 107.524 70.3758 109.195 70.3758V68.9758C107.69 68.9758 106.808 68.6207 106.338 68.0957L105.295 69.0293ZM109.195 70.3758C111.067 70.3758 112.608 69.7249 113.735 68.3886L112.664 67.4864C111.837 68.4678 110.709 68.9758 109.195 68.9758V70.3758ZM113.735 68.3886C114.85 67.0647 115.364 65.2765 115.364 63.1133H113.964C113.964 65.0646 113.501 66.4926 112.664 67.4864L113.735 68.3886ZM115.364 63.1133V50.8672H113.964V63.1133H115.364ZM114.664 51.5672H118.18V50.1672H114.664V51.5672ZM117.48 50.8672V67.4883H118.88V50.8672H117.48ZM117.48 67.4883C117.48 68.7141 117.486 69.7082 117.499 70.4691L118.899 70.445C118.886 69.6955 118.88 68.7103 118.88 67.4883H117.48ZM117.5 70.4812C117.526 71.2327 117.559 71.783 117.604 72.099L118.99 71.901C118.957 71.6701 118.925 71.1918 118.899 70.4329L117.5 70.4812ZM118.297 71.3H114.977V72.7H118.297V71.3ZM115.663 71.8627C115.667 71.883 115.666 71.8829 115.661 71.8327C115.656 71.793 115.651 71.7367 115.645 71.6623C115.632 71.514 115.616 71.3045 115.597 71.0322L114.2 71.1319C114.22 71.4065 114.236 71.6234 114.25 71.781C114.261 71.9155 114.274 72.0565 114.29 72.1373L115.663 71.8627ZM115.598 71.0487C115.572 70.512 115.546 69.6217 115.52 68.3721L114.12 68.4013C114.147 69.6517 114.173 70.5583 114.199 71.1153L115.598 71.0487ZM114.82 67.6867H114.762V69.0867H114.82V67.6867ZM130.934 63.3281L131.519 62.9444L130.936 62.0542L130.349 62.9426L130.934 63.3281ZM125.211 72V72.7H125.588L125.795 72.3856L125.211 72ZM121.422 72L120.846 71.6015L120.086 72.7H121.422V72ZM128.941 61.1406L129.517 61.5391L129.794 61.1391L129.515 60.7401L128.941 61.1406ZM121.773 50.8672V50.1672H120.431L121.199 51.2677L121.773 50.8672ZM125.66 50.8672L126.249 50.4893L126.043 50.1672H125.66V50.8672ZM130.934 59.0898L130.344 59.4677L130.936 60.3899L131.524 59.4657L130.934 59.0898ZM136.168 50.8672V50.1672H135.784L135.577 50.4913L136.168 50.8672ZM140.094 50.8672L140.667 51.2688L141.439 50.1672H140.094V50.8672ZM132.926 61.1016L132.352 60.7L132.071 61.1011L132.352 61.5026L132.926 61.1016ZM140.543 72V72.7H141.886L141.117 71.599L140.543 72ZM136.617 72L136.032 72.3837L136.239 72.7H136.617V72ZM130.349 62.9426L124.627 71.6144L125.795 72.3856L131.518 63.7137L130.349 62.9426ZM125.211 71.3H121.422V72.7H125.211V71.3ZM121.997 72.3985L129.517 61.5391L128.366 60.7421L120.846 71.6015L121.997 72.3985ZM129.515 60.7401L122.348 50.4666L121.199 51.2677L128.367 61.5412L129.515 60.7401ZM121.773 51.5672H125.66V50.1672H121.773V51.5672ZM125.071 51.2451L130.344 59.4677L131.523 58.712L126.249 50.4893L125.071 51.2451ZM131.524 59.4657L136.758 51.2431L135.577 50.4913L130.343 58.7139L131.524 59.4657ZM136.168 51.5672H140.094V50.1672H136.168V51.5672ZM139.52 50.4656L132.352 60.7L133.499 61.5031L140.667 51.2688L139.52 50.4656ZM132.352 61.5026L139.969 72.401L141.117 71.599L133.5 60.7006L132.352 61.5026ZM140.543 71.3H136.617V72.7H140.543V71.3ZM137.203 71.6163L131.519 62.9444L130.348 63.7118L136.032 72.3837L137.203 71.6163ZM157.027 68.3867V67.6867H156.615L156.415 68.0477L157.027 68.3867ZM154.215 71.4922L154.561 72.1009L154.563 72.0995L154.215 71.4922ZM145.172 70.6719L144.657 71.1462L144.663 71.1522L145.172 70.6719ZM143.57 50.8672V50.1672H142.87V50.8672H143.57ZM147.105 50.8672H147.805V50.1672H147.105V50.8672ZM148.082 68.5625L147.552 69.0196L147.56 69.0293L148.082 68.5625ZM155.465 67.9375L154.93 67.4864L155.465 67.9375ZM156.93 50.8672V50.1672H156.23V50.8672H156.93ZM160.445 50.8672H161.145V50.1672H160.445V50.8672ZM160.465 70.457L159.765 70.4691L159.765 70.4812L160.465 70.457ZM160.562 72V72.7H161.37L161.255 71.901L160.562 72ZM157.242 72L156.556 72.1373L156.668 72.7H157.242V72ZM157.164 71.082L156.465 71.1153L156.465 71.1236L156.466 71.1319L157.164 71.082ZM157.086 68.3867L157.786 68.3721L157.772 67.6867H157.086V68.3867ZM156.415 68.0477C155.648 69.4324 154.791 70.3552 153.867 70.8849L154.563 72.0995C155.774 71.4052 156.792 70.2577 157.64 68.7257L156.415 68.0477ZM153.869 70.8835C152.947 71.4073 151.759 71.6906 150.27 71.6906V73.0906C151.931 73.0906 153.374 72.775 154.561 72.1009L153.869 70.8835ZM150.27 71.6906C148.053 71.6906 146.578 71.1423 145.681 70.1916L144.663 71.1522C145.927 72.4931 147.85 73.0906 150.27 73.0906V71.6906ZM145.687 70.1976C144.797 69.2317 144.27 67.5418 144.27 64.9492H142.87C142.87 67.6692 143.412 69.7943 144.657 71.1462L145.687 70.1976ZM144.27 64.9492V50.8672H142.87V64.9492H144.27ZM143.57 51.5672H147.105V50.1672H143.57V51.5672ZM146.405 50.8672V64.2656H147.805V50.8672H146.405ZM146.405 64.2656C146.405 65.352 146.489 66.2932 146.667 67.077C146.844 67.8559 147.125 68.5239 147.552 69.0196L148.612 68.1054C148.388 67.8459 148.181 67.4202 148.032 66.7667C147.885 66.1182 147.805 65.2887 147.805 64.2656H146.405ZM147.56 69.0293C148.419 69.9887 149.789 70.3758 151.461 70.3758V68.9758C149.955 68.9758 149.073 68.6207 148.604 68.0957L147.56 69.0293ZM151.461 70.3758C153.333 70.3758 154.874 69.7249 156 68.3886L154.93 67.4864C154.103 68.4678 152.974 68.9758 151.461 68.9758V70.3758ZM156 68.3886C157.116 67.0647 157.63 65.2765 157.63 63.1133H156.23C156.23 65.0646 155.767 66.4926 154.93 67.4864L156 68.3886ZM157.63 63.1133V50.8672H156.23V63.1133H157.63ZM156.93 51.5672H160.445V50.1672H156.93V51.5672ZM159.745 50.8672V67.4883H161.145V50.8672H159.745ZM159.745 67.4883C159.745 68.7141 159.752 69.7082 159.765 70.4691L161.165 70.445C161.152 69.6955 161.145 68.7103 161.145 67.4883H159.745ZM159.765 70.4812C159.791 71.2327 159.824 71.783 159.87 72.099L161.255 71.901C161.222 71.6701 161.191 71.1918 161.164 70.4329L159.765 70.4812ZM160.562 71.3H157.242V72.7H160.562V71.3ZM157.929 71.8627C157.933 71.883 157.931 71.8829 157.926 71.8327C157.922 71.793 157.917 71.7367 157.91 71.6623C157.898 71.514 157.882 71.3045 157.862 71.0322L156.466 71.1319C156.485 71.4065 156.502 71.6234 156.515 71.781C156.527 71.9155 156.54 72.0565 156.556 72.1373L157.929 71.8627ZM157.863 71.0487C157.838 70.512 157.812 69.6217 157.786 68.3721L156.386 68.4013C156.412 69.6517 156.438 70.5583 156.465 71.1153L157.863 71.0487ZM157.086 67.6867H157.027V69.0867H157.086V67.6867ZM169.527 72V72.7H170.227V72H169.527ZM166.012 72H165.312V72.7H166.012V72ZM165.973 53.4453L165.273 53.4564L165.273 53.4675L165.973 53.4453ZM165.895 50.8672V50.1672H165.163L165.195 50.8976L165.895 50.8672ZM169.215 50.8672L169.914 50.8368L169.885 50.1672H169.215V50.8672ZM169.273 52.4883L168.574 52.5072L168.574 52.5166L168.574 52.5261L169.273 52.4883ZM169.332 53.7578L168.632 53.7828L168.633 53.7837L169.332 53.7578ZM169.352 54.6562H168.652V54.6757L168.653 54.6951L169.352 54.6562ZM169.371 55.1836H168.671V55.8836H169.371V55.1836ZM169.449 55.1836V55.8836H169.967L170.119 55.3885L169.449 55.1836ZM170.738 52.2148L170.165 51.8134L170.16 51.8199L170.156 51.8266L170.738 52.2148ZM172.301 50.8672L172.573 51.5122L172.585 51.5069L172.301 50.8672ZM175.895 50.6719H176.595V50.1398L176.082 49.9974L175.895 50.6719ZM175.895 53.8945L175.697 54.5661L176.595 54.8301V53.8945H175.895ZM170.68 55.5938L171.276 55.9603L171.278 55.9575L170.68 55.5938ZM168.827 60.9844V72H170.227V60.9844H168.827ZM169.527 71.3H166.012V72.7H169.527V71.3ZM166.712 72V55.7891H165.312V72H166.712ZM166.712 55.7891C166.712 55.0387 166.699 54.2501 166.672 53.4231L165.273 53.4675C165.299 54.2812 165.312 55.055 165.312 55.7891H166.712ZM166.673 53.4342C166.659 52.6069 166.633 51.741 166.594 50.8368L165.195 50.8976C165.234 51.7902 165.26 52.6431 165.273 53.4564L166.673 53.4342ZM165.895 51.5672H169.215V50.1672H165.895V51.5672ZM168.516 50.8976C168.541 51.4936 168.561 52.03 168.574 52.5072L169.973 52.4694C169.96 51.983 169.94 51.4387 169.914 50.8368L168.516 50.8976ZM168.574 52.5261C168.6 53.0048 168.62 53.4236 168.632 53.7828L170.032 53.7328C170.018 53.3629 169.999 52.9353 169.972 52.4505L168.574 52.5261ZM168.633 53.7837C168.645 54.1299 168.652 54.4202 168.652 54.6562H170.052C170.052 54.3975 170.045 54.0888 170.032 53.7319L168.633 53.7837ZM168.653 54.6951C168.666 54.9266 168.671 55.0866 168.671 55.1836H170.071C170.071 55.0462 170.064 54.8546 170.05 54.6174L168.653 54.6951ZM169.371 55.8836H169.449V54.4836H169.371V55.8836ZM170.119 55.3885C170.499 54.1445 170.905 53.2268 171.321 52.6031L170.156 51.8266C169.634 52.6092 169.18 53.6706 168.78 54.9787L170.119 55.3885ZM171.312 52.6163C171.711 52.0463 172.135 51.6969 172.573 51.5121L172.029 50.2223C171.294 50.5323 170.677 51.0813 170.165 51.8134L171.312 52.6163ZM172.585 51.5069C173.057 51.2973 173.676 51.1766 174.469 51.1766V49.7766C173.543 49.7766 172.717 49.9162 172.016 50.2275L172.585 51.5069ZM174.469 51.1766C174.887 51.1766 175.299 51.2329 175.707 51.3463L176.082 49.9974C175.553 49.8504 175.014 49.7766 174.469 49.7766V51.1766ZM175.195 50.6719V53.8945H176.595V50.6719H175.195ZM176.092 53.223C175.555 53.0649 174.852 52.9992 174.02 52.9992V54.3992C174.802 54.3992 175.349 54.4638 175.697 54.5661L176.092 53.223ZM174.02 52.9992C172.313 52.9992 170.975 53.7617 170.082 55.23L171.278 55.9575C171.921 54.8998 172.81 54.3992 174.02 54.3992V52.9992ZM170.083 55.2272C169.218 56.6349 168.827 58.5814 168.827 60.9844H170.227C170.227 58.6999 170.605 57.0526 171.276 55.9603L170.083 55.2272ZM177.867 80.0859H177.167V80.6534L177.722 80.7708L177.867 80.0859ZM177.867 77.4492L177.976 76.7578L177.167 76.63V77.4492H177.867ZM182.535 76.3359L182.078 75.8054L182.071 75.8123L182.535 76.3359ZM185.035 71.9023L185.698 72.1273L185.781 71.883L185.685 71.6433L185.035 71.9023ZM176.656 50.8672V50.1672H175.624L176.006 51.1262L176.656 50.8672ZM180.406 50.8672L181.06 50.6178L180.889 50.1672H180.406V50.8672ZM184.859 62.5469L184.205 62.7963L184.207 62.8016L184.859 62.5469ZM185.895 65.3789L185.233 65.6076L185.235 65.6149L185.895 65.3789ZM186.773 68.1719L186.096 68.3468L186.67 70.5729L187.434 68.4044L186.773 68.1719ZM187.75 65.418L187.094 65.1742L187.091 65.1825L187.75 65.418ZM188.727 62.6836L189.389 62.9106L189.389 62.9102L188.727 62.6836ZM192.77 50.8672V50.1672H192.269L192.107 50.6406L192.77 50.8672ZM196.48 50.8672L197.134 51.1184L197.5 50.1672H196.48V50.8672ZM188.355 72L189.006 72.2574L189.009 72.2512L188.355 72ZM187.086 74.9297L186.456 74.6245L186.454 74.6284L187.086 74.9297ZM185.914 77.0195L185.338 76.6218L185.336 76.625L185.914 77.0195ZM183.395 79.4805L183.044 78.8742L183.034 78.8802L183.395 79.4805ZM180.289 79.6008C179.384 79.6008 178.628 79.5314 178.012 79.4011L177.722 80.7708C178.46 80.9269 179.319 81.0008 180.289 81.0008V79.6008ZM178.567 80.0859V77.4492H177.167V80.0859H178.567ZM177.758 78.1407C178.295 78.2255 178.879 78.2664 179.508 78.2664V76.8664C178.939 76.8664 178.429 76.8292 177.976 76.7578L177.758 78.1407ZM179.508 78.2664C180.795 78.2664 181.965 77.7777 183 76.8595L182.071 75.8123C181.256 76.5348 180.408 76.8664 179.508 76.8664V78.2664ZM182.992 76.8664C184.074 75.9344 184.957 74.3101 185.698 72.1273L184.372 71.6774C183.655 73.7915 182.871 75.1229 182.078 75.8055L182.992 76.8664ZM185.685 71.6433L177.307 50.6082L176.006 51.1262L184.385 72.1614L185.685 71.6433ZM176.656 51.5672H180.406V50.1672H176.656V51.5672ZM179.752 51.1166L184.205 62.7963L185.513 62.2975L181.06 50.6178L179.752 51.1166ZM184.207 62.8016C184.529 63.6245 184.871 64.5596 185.233 65.6076L186.556 65.1502C186.189 64.0888 185.841 63.1359 185.511 62.2922L184.207 62.8016ZM185.235 65.6149C185.608 66.6558 185.894 67.5657 186.096 68.3468L187.451 67.997C187.236 67.1634 186.936 66.2114 186.554 65.143L185.235 65.6149ZM187.434 68.4044C187.759 67.4809 188.084 66.5639 188.409 65.6534L187.091 65.1825C186.765 66.095 186.439 67.0139 186.113 67.9394L187.434 68.4044ZM188.406 65.6617C188.747 64.7447 189.074 63.8277 189.389 62.9106L188.064 62.4566C187.754 63.3624 187.43 64.2683 187.094 65.1742L188.406 65.6617ZM189.389 62.9102L193.432 51.0938L192.107 50.6406L188.064 62.457L189.389 62.9102ZM192.77 51.5672H196.48V50.1672H192.77V51.5672ZM195.827 50.616L187.702 71.7488L189.009 72.2512L197.134 51.1184L195.827 50.616ZM187.704 71.7426C187.266 72.8508 186.85 73.8107 186.456 74.6245L187.716 75.2348C188.129 74.382 188.559 73.3888 189.006 72.2574L187.704 71.7426ZM186.454 74.6284C186.061 75.4536 185.688 76.1151 185.338 76.6218L186.49 77.4173C186.895 76.8302 187.304 76.0985 187.718 75.231L186.454 74.6284ZM185.336 76.625C184.625 77.6665 183.858 78.4046 183.044 78.8743L183.745 80.0867C184.78 79.4886 185.693 78.5861 186.492 77.4141L185.336 76.625ZM183.034 78.8802C182.241 79.356 181.333 79.6008 180.289 79.6008V81.0008C181.563 81.0008 182.725 80.6987 183.755 80.0807L183.034 78.8802Z" fill="white" mask="url(#path-2-outside-1_22_185)"/>
<path d="M82.5463 114.167L71.8872 174.211C71.6752 175.409 71.895 176.643 72.5075 177.695C73.1199 178.746 74.0854 179.546 75.2322 179.953L154.264 207.989C155.411 208.396 156.664 208.383 157.803 207.953C158.941 207.522 159.889 206.702 160.48 205.639L190.042 152.3" stroke="url(#paint1_linear_22_185)" stroke-width="4" stroke-linecap="round" stroke-linejoin="round"/>
<path d="M185.593 147.785L151.416 168.854L148.024 117.224" stroke="url(#paint2_linear_22_185)" stroke-width="4" stroke-linecap="round" stroke-linejoin="round"/>
<path d="M137.275 113.411L102.106 151.361L88.8465 113.464" stroke="url(#paint3_linear_22_185)" stroke-width="4" stroke-linecap="round" stroke-linejoin="round"/>
<path d="M142.015 117.109C148.941 119.566 156.548 115.943 159.005 109.017C161.462 102.091 157.839 94.4839 150.912 92.0268C143.986 89.5697 136.379 93.1928 133.922 100.119C131.465 107.045 135.088 114.652 142.015 117.109Z" fill="url(#paint4_linear_22_185)" stroke="url(#paint5_linear_22_185)" stroke-width="4" stroke-linecap="round" stroke-linejoin="round"/>
<path d="M191.834 152.936C198.76 155.393 206.367 151.77 208.824 144.844C211.281 137.917 207.658 130.311 200.731 127.853C193.805 125.396 186.198 129.019 183.741 135.946C181.284 142.872 184.907 150.479 191.834 152.936Z" fill="url(#paint6_linear_22_185)" stroke="url(#paint7_linear_22_185)" stroke-width="4" stroke-linecap="round" stroke-linejoin="round"/>
<path d="M80.7546 113.531C87.6809 115.988 95.2876 112.365 97.7447 105.439C100.202 98.5127 96.5787 90.906 89.6524 88.4489C82.7261 85.9918 75.1194 89.6149 72.6623 96.5412C70.2052 103.468 73.8283 111.074 80.7546 113.531Z" fill="url(#paint8_linear_22_185)" stroke="url(#paint9_linear_22_185)" stroke-width="4" stroke-linecap="round" stroke-linejoin="round"/>
<defs>
<filter id="filter0_i_22_185" x="57.3008" y="2.01562" width="159.375" height="78.2852" filterUnits="userSpaceOnUse" color-interpolation-filters="sRGB">
<feFlood flood-opacity="0" result="BackgroundImageFix"/>
<feBlend mode="normal" in="SourceGraphic" in2="BackgroundImageFix" result="shape"/>
<feColorMatrix in="SourceAlpha" type="matrix" values="0 0 0 0 0 0 0 0 0 0 0 0 0 0 0 0 0 0 127 0" result="hardAlpha"/>
<feOffset dy="-8"/>
<feGaussianBlur stdDeviation="3"/>
<feComposite in2="hardAlpha" operator="arithmetic" k2="-1" k3="1"/>
<feColorMatrix type="matrix" values="0 0 0 0 0.890833 0 0 0 0 0.844511 0 0 0 0 0.813628 0 0 0 1 0"/>
<feBlend mode="normal" in2="shape" result="effect1_innerShadow_22_185"/>
</filter>
<linearGradient id="paint0_linear_22_185" x1="131.5" y1="0" x2="131.5" y2="234" gradientUnits="userSpaceOnUse">
<stop stop-color="#1711DC" stop-opacity="0"/>
<stop offset="1" stop-color="#6500E1" stop-opacity="0.45"/>
</linearGradient>
<linearGradient id="paint1_linear_22_185" x1="136.294" y1="133.234" x2="114.748" y2="193.971" gradientUnits="userSpaceOnUse">
<stop stop-color="#FF9D01"/>
<stop offset="1" stop-color="#FF6F00"/>
</linearGradient>
<linearGradient id="paint2_linear_22_185" x1="169.524" y1="124.851" x2="153.635" y2="169.641" gradientUnits="userSpaceOnUse">
<stop stop-color="#FF9D01"/>
<stop offset="1" stop-color="#FF6F00"/>
</linearGradient>
<linearGradient id="paint3_linear_22_185" x1="115.776" y1="105.784" x2="99.8868" y2="150.574" gradientUnits="userSpaceOnUse">
<stop stop-color="#FF9D01"/>
<stop offset="1" stop-color="#FF6F00"/>
</linearGradient>
<linearGradient id="paint4_linear_22_185" x1="150.912" y1="92.0268" x2="142.015" y2="117.109" gradientUnits="userSpaceOnUse">
<stop stop-color="white"/>
<stop offset="1" stop-color="#8C00BA"/>
</linearGradient>
<linearGradient id="paint5_linear_22_185" x1="150.912" y1="92.0268" x2="142.015" y2="117.109" gradientUnits="userSpaceOnUse">
<stop stop-color="#FE9D00"/>
<stop offset="1" stop-color="#3700FE"/>
</linearGradient>
<linearGradient id="paint6_linear_22_185" x1="200.731" y1="127.853" x2="191.834" y2="152.936" gradientUnits="userSpaceOnUse">
<stop stop-color="white"/>
<stop offset="1" stop-color="#8C00BA"/>
</linearGradient>
<linearGradient id="paint7_linear_22_185" x1="200.731" y1="127.853" x2="191.834" y2="152.936" gradientUnits="userSpaceOnUse">
<stop stop-color="#FE9D00"/>
<stop offset="1" stop-color="#3700FE"/>
</linearGradient>
<linearGradient id="paint8_linear_22_185" x1="89.6524" y1="88.4489" x2="80.7546" y2="113.531" gradientUnits="userSpaceOnUse">
<stop stop-color="white"/>
<stop offset="1" stop-color="#8C00BA"/>
</linearGradient>
<linearGradient id="paint9_linear_22_185" x1="89.6524" y1="88.4489" x2="80.7546" y2="113.531" gradientUnits="userSpaceOnUse">
<stop stop-color="#FF9D01"/>
<stop offset="1" stop-color="#3700FE"/>
</linearGradient>
</defs>
</svg>
