<svg width="291" height="215" viewBox="0 0 291 215" fill="none" xmlns="http://www.w3.org/2000/svg">
<path opacity="0.8" d="M81.8135 147.787C75.1251 160.485 58.9458 165.579 49.1277 155.11C41.364 146.832 35.441 136.886 31.8984 125.913C25.6722 106.627 27.2977 85.7133 36.4244 67.6841C45.551 49.6548 61.4472 35.9548 80.6838 29.5394C99.9203 23.1241 120.955 24.5076 139.251 33.3916C157.547 42.2755 171.636 57.9479 178.481 77.0276C185.325 96.1073 184.375 117.065 175.837 135.38C167.298 153.695 151.855 167.898 132.838 174.927C122.023 178.924 110.545 180.418 99.2405 179.438C84.9343 178.197 78.9335 162.321 84.7901 149.21L87.4278 143.305C91.8278 133.454 104.316 129.85 114.435 126.11C120.609 123.828 125.622 119.217 128.394 113.272C131.166 107.326 131.475 100.522 129.253 94.3285C127.031 88.1345 122.457 83.0467 116.517 80.1627C110.578 77.2786 103.749 76.8295 97.5044 78.9121C91.2595 80.9948 86.099 85.4423 83.1362 91.2952C80.1733 97.1482 79.6456 103.937 81.6669 110.198C84.9798 120.46 89.8647 132.501 84.8395 142.041L81.8135 147.787Z" fill="url(#paint0_linear_44_2)"/>
<circle cx="94.7523" cy="120" r="67" transform="rotate(-45 94.7523 120)" fill="#030303"/>
<g clip-path="url(#clip0_44_2)">
<path d="M73.7997 118.803C69.9398 107.469 56.3975 104.141 49.3693 103.806C47.3973 105.312 46.9394 106.827 48.6637 109.348C51.617 113.219 56.8414 112.676 59.6733 116.117C62.3929 119.426 60.0892 122.991 63.3976 126.38C65.2808 128.452 69.6968 129.179 72.1408 127.801C75.7483 125.795 74.0614 119.743 73.7997 118.799V118.803Z" fill="white"/>
<path d="M40.0514 100.681C43.6076 109.598 58.7807 115.702 67.4024 114.097C67.6781 111.718 68.8183 110.424 69.9772 112.402C64.4537 105.066 59.2994 106.563 55.2012 103.055C52.1217 99.8922 54.1498 96.6585 49.8553 93.3021C44.9113 88.86 39.2009 97.0362 40.0514 100.681Z" fill="white"/>
<path d="M233.817 100.884C250.948 112.303 248.653 116.495 249.452 131.582C246.915 133.296 244.91 133.211 242.144 130.61C237.934 126.201 239.98 120.72 236.289 116.575C232.742 112.596 227.56 113.974 224.064 109.334C218.667 102.012 229.396 97.6782 233.812 100.884H233.817Z" fill="white"/>
<path d="M225.335 100.699C207.732 111.364 209.849 115.655 208.405 130.69C210.868 132.512 212.872 132.517 215.746 130.039C220.144 125.818 218.326 120.253 222.19 116.273C225.905 112.449 231.018 114.054 234.714 109.565C240.42 102.484 229.882 97.6877 225.335 100.699Z" fill="white"/>
<path d="M276.079 103.466C292.43 114.361 290.238 118.364 291 132.762C288.579 134.396 286.663 134.316 284.028 131.837C280.009 127.631 281.962 122.396 278.444 118.445C275.056 114.644 270.116 115.961 266.775 111.533C261.621 104.547 271.864 100.412 276.079 103.466Z" fill="white"/>
<path d="M267.986 103.291C266.107 102.687 265.373 100.034 264.873 98.1267C262.761 90.0684 266.677 84.8993 263.733 81.9064C260.85 79.4138 258.037 80.2352 256.102 81.5617C253.322 83.7663 254.906 89.0724 255.42 96.5169C255.719 105.755 254.331 119.049 251.826 131.917C254.177 133.655 256.093 133.659 258.831 131.294C263.027 127.267 261.294 121.952 264.981 118.157C268.528 114.507 273.406 116.037 276.93 111.755C280.135 107.629 269.873 103.9 267.981 103.291H267.986Z" fill="white"/>
<path d="M269.733 112.289C285.748 100.893 283.439 96.9607 283.766 82.5437C281.294 80.9811 279.388 81.1227 276.822 83.6861C272.93 88.0149 275.042 93.1841 271.64 97.2439C268.369 101.143 263.392 99.9819 260.186 104.514C255.247 111.656 265.607 115.475 269.729 112.289H269.733Z" fill="white"/>
<path d="M147.82 99.1983C164.951 110.618 162.657 114.81 163.456 129.897C160.918 131.611 158.913 131.526 156.147 128.924C151.937 124.515 153.983 119.035 150.292 114.89C146.745 110.91 141.563 112.289 138.067 107.648C132.67 100.327 143.399 95.9929 147.815 99.1983H147.82Z" fill="white"/>
<path d="M139.338 99.0142C121.735 109.678 123.852 113.969 122.408 129.005C124.871 130.827 126.875 130.832 129.749 128.353C134.147 124.133 132.329 118.567 136.193 114.588C139.908 110.764 145.021 112.369 148.717 107.88C154.423 100.799 143.885 96.0024 139.338 99.0142Z" fill="white"/>
<path d="M202.181 126.286C206.877 106.1 202.358 104.646 192.68 93.1227C189.671 93.6373 188.269 95.0865 188.031 98.8961C187.965 105.024 193.18 107.587 193.316 113.157C193.442 118.511 188.741 121.102 189.353 126.904C190.405 135.972 201.153 131.681 202.185 126.286H202.181Z" fill="white"/>
<path d="M196.251 75.6892C207.022 82.8694 205.582 85.5035 206.083 94.9921C204.484 96.0685 203.227 96.0165 201.489 94.3832C198.839 91.6121 200.129 88.166 197.807 85.5602C195.578 83.0582 192.321 83.9221 190.12 81.0047C186.722 76.4021 193.47 73.6735 196.251 75.6892Z" fill="white"/>
<path d="M190.919 75.5759C179.848 82.2793 181.18 84.9795 180.274 94.4351C181.82 95.5822 183.082 95.5822 184.891 94.0244C187.652 91.3714 186.512 87.8686 188.942 85.3666C191.278 82.9638 194.494 83.9693 196.816 81.1511C200.405 76.6994 193.779 73.6829 190.919 75.5759Z" fill="white"/>
<path d="M69.8557 129.746C52.79 137.28 50.7666 133.442 39 126.607C38.9626 123.807 40.014 122.311 43.3412 121.466C48.7432 120.404 51.86 124.69 56.804 123.897C61.5565 123.137 63.0752 118.473 68.2996 118.072C76.482 117.533 74.4492 127.928 69.8557 129.741V129.746Z" fill="white"/>
<path d="M44.5141 91.5932C61.7154 84.3847 63.6733 88.2557 75.3044 95.3178C75.2904 98.1172 74.2109 99.5948 70.8697 100.374C65.4491 101.332 62.4116 96.989 57.4536 97.6876C52.6872 98.358 51.0843 102.994 45.8506 103.291C37.6588 103.673 39.8879 93.321 44.5141 91.5932Z" fill="white"/>
<path d="M93.2159 133.9C76.0848 122.481 78.3792 118.289 77.5801 103.201C80.1176 101.488 82.1223 101.573 84.8887 104.174C89.099 108.583 87.0523 114.064 90.7439 118.208C94.2907 122.188 99.4731 120.81 102.968 125.45C108.366 132.772 97.6366 137.105 93.2206 133.9H93.2159Z" fill="white"/>
<path d="M101.697 134.089C119.301 123.425 117.184 119.134 118.628 104.098C116.165 102.276 114.16 102.271 111.286 104.75C106.889 108.97 108.707 114.536 104.842 118.515C101.127 122.339 96.0151 120.734 92.3187 125.223C86.613 132.304 97.1506 137.101 101.697 134.089Z" fill="white"/>
</g>
<defs>
<linearGradient id="paint0_linear_44_2" x1="137.139" y1="32.4049" x2="74.0401" y2="172.884" gradientUnits="userSpaceOnUse">
<stop stop-color="#FAEA23" stop-opacity="0.34"/>
<stop offset="1" stop-color="#FF7300"/>
</linearGradient>
<clipPath id="clip0_44_2">
<rect width="252" height="60" fill="white" transform="translate(39 75)"/>
</clipPath>
</defs>
</svg>
